<svg xmlns="http://www.w3.org/2000/svg" xmlns:xlink="http://www.w3.org/1999/xlink" width="719" height="416" viewBox="0 0 719 416"><defs><style>.a{fill:#4c9ff2;opacity:0.7;}.b{fill:#f8d6a3;}.c{fill:#110f3a;}.ab,.ak,.d,.h,.n,.o{fill:none;}.d{stroke:#707070;}.d,.n,.o{stroke-width:4px;}.e{fill:#99745b;}.f{fill:#e2aa84;}.g{fill:#f6ab9a;}.h{stroke:#99745b;stroke-width:2px;}.i{fill:#7b5419;}.j{fill:#bebcbc;}.k{fill:#075072;}.l{fill:#8ba051;}.m{fill:#6d8134;}.n,.o{stroke:#054a88;stroke-miterlimit:10;}.ab,.n,.o{stroke-linecap:round;}.n{stroke-linejoin:round;}.p{fill:#38454f;}.q{fill:#556080;}.r{fill:#054a88;}.s{fill:#fed734;}.t{fill:#c7cac7;}.u{fill:#f6c273;}.v{fill:#c16000;}.w{fill:#c9c9c9;}.x{fill:#b7b7b7;}.y{fill:url(#a);}.z{fill:#e6e6e6;}.aa{fill:url(#b);}.ab{stroke:#00062d;}.ac{fill:#d9b311;}.ad{fill:#b5d2dd;}.ae{fill:#7fb7e9;}.af{fill:#9e9af2;}.ag{fill:#f2f2f3;}.ah{fill:#dedde0;}.ai{fill:#616064;}.aj,.al{stroke:none;}.al{fill:#7b7878;}</style><linearGradient id="a" x1="0.5" x2="0.5" y2="1" gradientUnits="objectBoundingBox"><stop offset="0" stop-color="#b4b1b1"/><stop offset="1" stop-color="#dedede"/></linearGradient><linearGradient id="b" x1="0.5" x2="0.5" y2="1" gradientUnits="objectBoundingBox"><stop offset="0" stop-color="#aaa"/><stop offset="1" stop-color="#bba9a9"/></linearGradient></defs><g transform="translate(-803.441 -205.098)"><g transform="translate(803.441 204.94)"><path class="a" d="M-566.585-20279.217s-99.462-14.5-46.7-107.445c6.054-6.912,19.892-29.959-19.892-103.7-6.919-14.6-44.109-127.521,85.624-126.754,19.028.773,84.759,37.643,155.679,23.816-7.784-5.377-39.785-46.859,12.108-55.309,11.244-.771,85.624-21.508,68.326,31.492,16.433-3.836,152.22-20.734,97.732,126.754-10.379,20.736-23.352,49.162,25.082,82.963,4.324,6.145,27.676,29.957-35.46,80.656-5.189,1.537-109.84,53.006-109.84,53.006Z" transform="translate(783.542 20678.383)"/><path class="b" d="M-565.108-20417.35l-13.179,22.859s-5.648,21.52,18.827,30.125c3.5,10.219,22.055,60.514,87.411,63.742,13.448,0,59.978-1.885,85.8-56.482,3.5-.807,26.358-10.219,20.441-29.854-3.227-5.109-18.827-42.5-18.827-42.5l-25.282-43.836-78.267-9.148-49.757,30.395Z" transform="translate(818.405 20633.777)"/><path class="c" d="M-553.182-20487.1s-21.962,4.934-21.007,29.762c1.91.477,3.183,3.023-.8,4.617-1.751,1.586-6.525,4.453,5.093,8.117-2.865,2.383-22.6,17.184-4.3,25.141-2.228,2.863-6.843,3.82-6.525,10.188,3.5-1.277,10.345-4.137,13.05,1.273s6.843,18.3,16.392,18.934c.8-5.25,1.273-11.3-4.456-18.934,5.729.957,12.891,3.34,10.185-19.578,3.024,1.754,21.962,8.59,23.076-19.414,5.729,5.094,9.549,10.82,15.278-1.117,3.5,1.754,6.684,9.711,18.62,8.6,4.3-.16,15.278-5.25,24.19-18.937,1.751,4.93,3.183,10.5,9.39,11.457,2.546-2.547,4.456-1.59,5.093-10.344,4.456,7.32,25.3,25.461,43.606,19.574-2.069,5.09-7.8,19.891,12.573,18.145-3.342,5.566-17.188,27.371,0,25.461-.318,1.75-5.411,15.277,4.3,13.688,2.069-.32,9.071-2.7,12.1-21.008,1.432.316,8.116-4.934,11.3,3.023-.318-7.637,1.91-7.957-3.66-11.141,3.5-2.543,7.48-8.117,6.048-18.141-.637-3.023.159-7.164-6.048-7.957,1.591-3.82,12.891-15.762,2.228-35.016-2.069-3.5-5.093-12.094-16.392-10.184.477-7.32-3.66-24.988-15.119-19.1-2.706-9.551-32.148-44.723-68.115-23.395-3.66-4.613-13.687-20.691-23.076,0-4.456-1.594-52.359-4.613-53.473,22.6C-550-20500.312-562.254-20497.922-553.182-20487.1Z" transform="translate(819.196 20647.162)"/><g class="d" transform="translate(266 215.158)"><ellipse class="aj" cx="37" cy="36.5" rx="37" ry="36.5"/><ellipse class="ak" cx="37" cy="36.5" rx="35" ry="34.5"/></g><g class="d" transform="translate(346 215.158)"><ellipse class="aj" cx="37" cy="36.5" rx="37" ry="36.5"/><ellipse class="ak" cx="37" cy="36.5" rx="35" ry="34.5"/></g><line class="d" x2="9.605" transform="translate(338.815 245.859)"/><path class="e" d="M-504.483-20379.68a28.92,28.92,0,0,1,26.462-2.543C-479.246-20380.244-494.5-20373.748-504.483-20379.68Z" transform="translate(798.982 20608.152)"/><path class="e" d="M0,4.65A28.919,28.919,0,0,1,26.462,2.107C25.237,4.085,9.982,10.582,0,4.65Z" transform="translate(372.95 223.063) rotate(17)"/><path class="f" d="M0,4.091S8.742-3.365,19.811,1.854C18.895,3.593,7.473,9.308,0,4.091Z" transform="matrix(0.629, -0.777, 0.777, 0.629, 433.406, 266.335)"/><path class="f" d="M0,4.091S8.742-3.365,19.811,1.854C18.895,3.593,7.473,9.308,0,4.091Z" transform="matrix(-0.375, -0.927, 0.927, -0.375, 250.051, 264.302)"/><ellipse class="g" cx="8" cy="3.5" rx="8" ry="3.5" transform="translate(305 269.158)"/><ellipse class="g" cx="8" cy="3.5" rx="8" ry="3.5" transform="translate(367 271.158)"/><ellipse class="e" cx="6.28" cy="3.694" rx="6.28" ry="3.694" transform="translate(358.764 266.546) rotate(-90)"/><ellipse class="e" cx="6.28" cy="3.694" rx="6.28" ry="3.694" transform="translate(322.561 266.546) rotate(-90)"/><path class="h" d="M-448.264-20318.957s7.027-12.6,16.371,0" transform="translate(784.298 20592.537)"/><path class="e" d="M-450.313-20274.467s14.69,11.3,25.143-4.148c.094,1.7-5.556,11.963-15.255,10.738C-443.909-20268.254-447.111-20270.23-450.313-20274.467Z" transform="translate(784.833 20580.541)"/><rect class="i" width="411" height="14" rx="7" transform="translate(196 392.158)"/><path class="j" d="M0,0H377a0,0,0,0,1,0,0V0a10,10,0,0,1-10,10H10A10,10,0,0,1,0,0V0A0,0,0,0,1,0,0Z" transform="translate(213 406.158)"/><path class="k" d="M-631-20168.633l4.774,8.914h19.416l4.615-8.914s1.273-1.434-2.069-1.434h-25.782S-631.8-20170.225-631-20168.633Z" transform="translate(832.079 20552.188)"/><path class="l" d="M-626.39-20175.957s-3.578-3.154,0-3.34,4.332-2.168,2.354-2.918-6.215-4.523-2.354-4.334,5.085,1.6,7.157,1.035,3.673.381,3.39-2.068-.094-5.367,1.978-4.994,4.144,1.131,3.955,3.014-.565,3.484.848,4.049,4.9-.094,5.462,1.037-.377,2.447-1.7,3.107-3.013,1.32-1.507,2.637a17.069,17.069,0,0,0,3.2,2.166l-.471.609Z" transform="translate(831.236 20558.074)"/><path class="m" d="M-626.39-20173.816s-3.578-3.154,0-3.344,4.332-2.166,2.354-2.918-6.215-4.52-2.354-4.332,5.085,1.6,7.157,1.037,4.426,6.594,4.143,4.143,6.78,1.32,8.287,2.637a17,17,0,0,0,3.2,2.164l-.471.613Z" transform="translate(831.236 20555.938)"/><g transform="translate(533.093 217.336)"><path class="n" d="M99.315,35.622l-49.948-58.4-3.305,3.429" transform="translate(1.516 22.773)"/><line class="o" x1="52.456" y2="99.002" transform="translate(50.273 69.897)"/><path class="p" d="M32.445,51.937H3.118a3.744,3.744,0,0,1,3.744-3.744H28.7a3.744,3.744,0,0,1,3.744,3.744Z" transform="translate(32.283 123.242)"/><rect class="q" width="15.599" height="2.496" transform="translate(42.264 168.939)"/><circle class="r" cx="10.344" cy="10.344" r="10.344" transform="translate(94.169 53.265)"/><path class="s" d="M41.141,33.907l3.233-3.233C50.6,24.452,49.727,15.233,43.5,9.013S28.066,1.922,21.844,8.144l-3.2,3.222L.076,20.277,32.25,52.452Z" transform="translate(-0.076 -0.873)"/><path class="t" d="M20.871,8.317a18.546,18.546,0,0,1,2.861,3.519l4.049-4.367L21.505,1.193,17.147,5.568A16.71,16.71,0,0,1,20.871,8.317Z" transform="translate(22.237 -0.479)"/></g><path class="u" d="M-581.955-20271.6s-4.965,17.174,1.862,23.791,12.828,17.174,34.758,12.209c6.828-1.449,4.965,9.516,4.965,9.516l-6.414,13.863s-20.068,2.689-31.034-6.619-17.379-16.551-21.1-25.242c-2.689-1.035-19.448-3.932-22.758-15.518-.414-1.654,2.9-3.93,8.689,0,2.483,1.238,2.9-.623,1.241-1.447s-9.931-7.035-7.862-13.244c.414-2.066,6.207-3.307,15.931,7.451-1.448-3.932-8.9-13.035-4.138-16.965,1.448-1.244,6.207.207,10.138,9.514,1.862,3.934,3.517,9.314,8.069,9.107,1.034-.211,1.241-9.936,6-9.107C-582.576-20273.672-581.541-20274.295-581.955-20271.6Z" transform="translate(829.599 20581.996)"/><path class="s" d="M-471.316-20242.238l-6.553,63.809h46.63l1.185-60.467S-453.853-20234.123-471.316-20242.238Z" transform="translate(792.031 20571.035)"/><path class="v" d="M-485.909-20243.547s-25.782,1.754-32.307,15.121c-.5,6.105.159,7.16-2.228,26.418,1.347,2.1,8.364,2.168,11.3,3.344-8.594,14.48-11.355,19.895-11.355,19.895h36.127s1.01-45.836,5.785-62.23C-480.5-20241.793-484.317-20242.434-485.909-20243.547Z" transform="translate(803.165 20571.381)"/><path class="v" d="M-418.908-20237.668l10.773-1.824s18.608,8.566,39.787,18.607c1.1,3.918-2.571,25.344-2.571,25.344l-7.345,7.467-12.242-7.959s-2.081-.615-.857,2.936,6.488,15.426,6.488,15.426h-38.318S-418.3-20208.906-418.908-20237.668Z" transform="translate(777.75 20570.322)"/><g transform="translate(345.29 280.257)"><g transform="translate(52.698 0)"><g transform="translate(0 0)"><g transform="translate(0.613)"><g class="w"><path class="aj" d="M 170.9410400390625 102.1384353637695 L 0.5000123977661133 102.1384353637695 L 0.5000123977661133 10.36752223968506 C 0.5000123977661133 4.926543712615967 4.908729553222656 0.5000002980232239 10.32777309417725 0.5000002980232239 L 161.1132659912109 0.5000002980232239 C 166.5323181152344 0.5000002980232239 170.9410400390625 4.926543712615967 170.9410400390625 10.36752223968506 L 170.9410400390625 102.1384353637695 Z"/><path class="al" d="M 10.32777404785156 1 C 5.184432983398438 1 0.9999847412109375 5.202262878417969 0.9999847412109375 10.36752319335938 L 0.9999847412109375 101.6384353637695 L 170.4410095214844 101.6384353637695 L 170.4410095214844 10.36752319335938 C 170.4410095214844 5.202262878417969 166.256591796875 1 161.11328125 1 L 10.32777404785156 1 M 10.32777404785156 0 L 161.11328125 0 C 166.8171234130859 0 171.4410095214844 4.641693115234375 171.4410095214844 10.36752319335938 L 171.4410095214844 102.6384353637695 L -1.52587890625e-05 102.6384353637695 L -1.52587890625e-05 10.36752319335938 C -1.52587890625e-05 4.641693115234375 4.6239013671875 0 10.32777404785156 0 Z"/></g></g><g transform="translate(0 102.158)"><path class="x" d="M0,0H172a0,0,0,0,1,0,0V5a3,3,0,0,1-3,3H3A3,3,0,0,1,0,5V0A0,0,0,0,1,0,0Z" transform="translate(0.012 -0.258)"/><path class="y" d="M-1.375-.346l165.2-.116-4.649,2.553H3.06Z" transform="translate(4.821 7.721)"/><rect class="z" width="10" height="4" rx="2" transform="translate(156.012 1.742)"/><rect class="z" width="11" height="4" rx="2" transform="translate(5.012 1.742)"/><rect class="z" width="12" height="4" rx="2" transform="translate(17.012 1.742)"/></g></g><path class="aa" d="M0,0H17a0,0,0,0,1,0,0V4A15,15,0,0,1,2,19H0a0,0,0,0,1,0,0V0A0,0,0,0,1,0,0Z" transform="translate(79.012 46.899)"/></g><path class="ab" d="M-4010.218,6315.677v3.51s.809,4.046-4.045,4.046h-20.654s-4.02-.458-4.02,4.02,4.02,4.02,4.02,4.02h48.727s2.992.132,2.992,2.991,1.518,3.748,3.748,3.748h49.2s3.366-.823,3.366-3.365.845-3.915,3.914-3.915h15.046s4.449-.415,4.449-4.449-4.449-4.451-4.449-4.451h-46.6s-4.725-.209-4.725-4.725v-6.386" transform="translate(4038.936 -6204.314)"/></g><path class="ac" d="M-463.772-20240.5s11.25,5.387,34.388,2.574C-432.444-20235.605-449.191-20222.016-463.772-20240.5Z" transform="translate(788.349 20570.584)"/><g transform="translate(0 0)"><ellipse class="ad" cx="5.5" cy="4.5" rx="5.5" ry="4.5" transform="translate(109 34.158)"/><ellipse class="ad" cx="4.5" cy="4" rx="4.5" ry="4" transform="translate(13 105.158)"/><ellipse class="ad" cx="5" cy="4" rx="5" ry="4" transform="translate(0 379.158)"/><circle class="ad" cx="4" cy="4" r="4" transform="translate(414 111.158)"/><circle class="ad" cx="3" cy="3" r="3" transform="translate(488 131.158)"/><circle class="ad" cx="2.5" cy="2.5" r="2.5" transform="translate(171 126.158)"/><ellipse class="ad" cx="2.5" cy="2" rx="2.5" ry="2" transform="translate(251 78.158)"/><ellipse class="ad" cx="2.5" cy="2" rx="2.5" ry="2" transform="translate(264 0.158)"/><circle class="ad" cx="3" cy="3" r="3" transform="translate(338 53.158)"/><ellipse class="ad" cx="2.5" cy="3.5" rx="2.5" ry="3.5" transform="translate(90 224.158)"/><circle class="ad" cx="3.5" cy="3.5" r="3.5" transform="translate(497 201.158)"/><ellipse class="ad" cx="2.5" cy="2" rx="2.5" ry="2" transform="translate(621 78.158)"/><ellipse class="ad" cx="3" cy="2.5" rx="3" ry="2.5" transform="translate(562 40.158)"/><path class="ae" d="M13.819,0c7.632,0,13.819,6.531,13.819,14.587S21.451,29.173,13.819,29.173,0,22.643,0,14.587,6.187,0,13.819,0Z" transform="translate(520.901 21.548)"/><ellipse class="ae" cx="19.209" cy="32.878" rx="19.209" ry="32.878" transform="translate(64.29 117.591) rotate(-19)"/><ellipse class="ae" cx="19.209" cy="32.878" rx="19.209" ry="32.878" transform="matrix(0.891, 0.454, -0.454, 0.891, 618.487, 142.088)"/><circle class="ad" cx="5" cy="5" r="5" transform="translate(709 272.158)"/><ellipse class="ad" cx="5" cy="4.5" rx="5" ry="4.5" transform="translate(704 38.158)"/></g></g><g transform="translate(815.961 450.146)"><rect class="af" width="98.768" height="119.345" rx="14" transform="translate(57.615 0)"/><path class="c" d="M14,0H49.384a0,0,0,0,1,0,0V119.345a0,0,0,0,1,0,0H0a0,0,0,0,1,0,0V14A14,14,0,0,1,14,0Z" transform="translate(57.615 0)"/><path class="ag" d="M261.543,121.348H280.1l25.649,74.026H285.106l-4.483-14.493H260.917l-4.379,14.493H235.79Zm15.848,45.98-6.568-22.938-6.882,22.938Z" transform="translate(-163.771 -98.688)"/><path class="ah" d="M270.77,167.328h-6.83l6.83-22.766V121.348h-9.227l-25.753,74.026h20.749l4.379-14.493h9.853Z" transform="translate(-163.771 -98.688)"/><rect class="ag" width="98.768" height="119.345" rx="14" transform="translate(0 8.23)"/><path class="af" d="M12.546,0H49.384V119.345H12.546A12.546,12.546,0,0,1,0,106.8V12.546A12.546,12.546,0,0,1,12.546,0Z" transform="translate(0 8.23)"/><path class="ai" d="M72.912,148.293H91.47l25.649,74.026H96.475l-4.483-14.493H72.286l-4.379,14.493H47.159Zm15.848,45.98-6.568-22.939L75.31,194.273Z" transform="translate(-32.755 -117.403)"/><path d="M82.138,194.273H75.309l6.829-22.766V148.293H72.911L47.158,222.319H67.906l4.379-14.493h9.853Z" transform="translate(-32.754 -117.403)"/></g></g></svg>