<?xml version="1.0" encoding="UTF-8"?>
<svg width="625px" height="385px" viewBox="0 0 625 385" version="1.1" xmlns="http://www.w3.org/2000/svg" xmlns:xlink="http://www.w3.org/1999/xlink">
    <!-- Generator: Sketch 53 (72520) - https://sketchapp.com -->
    <title>02_home2</title>
    <desc>Created with Sketch.</desc>
    <defs>
        <linearGradient x1="7.96343604%" y1="43.9173083%" x2="100.011663%" y2="60.2572%" id="linearGradient-1">
            <stop stop-color="#495C81" offset="6.208664%"></stop>
            <stop stop-color="#495C81" stop-opacity="0" offset="95.64%"></stop>
        </linearGradient>
        <linearGradient x1="8.88285586%" y1="42.5084994%" x2="101.96763%" y2="64.0085236%" id="linearGradient-2">
            <stop stop-color="#495C81" offset="6.208664%"></stop>
            <stop stop-color="#495C81" stop-opacity="0" offset="95.64%"></stop>
        </linearGradient>
        <linearGradient x1="7.01565155%" y1="43.591367%" x2="100.311749%" y2="57.1222085%" id="linearGradient-3">
            <stop stop-color="#495C81" offset="6.208664%"></stop>
            <stop stop-color="#495C81" stop-opacity="0" offset="95.64%"></stop>
        </linearGradient>
        <linearGradient x1="0.0247777496%" y1="50.2027856%" x2="99.9476797%" y2="50.2027856%" id="linearGradient-4">
            <stop stop-color="#495C81" offset="6.208664%"></stop>
            <stop stop-color="#495C81" stop-opacity="0" offset="95.64%"></stop>
        </linearGradient>
        <linearGradient x1="5.0596121e-05%" y1="49.9965446%" x2="100.011687%" y2="49.9965446%" id="linearGradient-5">
            <stop stop-color="#BABABA" offset="0%"></stop>
            <stop stop-color="#919191" offset="25.68%"></stop>
        </linearGradient>
        <linearGradient x1="0.00713646453%" y1="49.9887538%" x2="99.9844633%" y2="49.9887538%" id="linearGradient-6">
            <stop stop-color="#BABABA" offset="0%"></stop>
            <stop stop-color="#919191" offset="25.68%"></stop>
        </linearGradient>
        <linearGradient x1="0.00206504904%" y1="50.0069695%" x2="99.9819652%" y2="50.0069695%" id="linearGradient-7">
            <stop stop-color="#F5F5F5" offset="0.2025463%"></stop>
            <stop stop-color="#B0B0B0" offset="100%"></stop>
        </linearGradient>
        <linearGradient x1="-0.0133751505%" y1="50.0059836%" x2="99.9918488%" y2="50.0059836%" id="linearGradient-8">
            <stop stop-color="#BABABA" offset="0%"></stop>
            <stop stop-color="#919191" offset="25.68%"></stop>
        </linearGradient>
        <linearGradient x1="-0.00706057228%" y1="50.0052115%" x2="99.9918246%" y2="50.0052115%" id="linearGradient-9">
            <stop stop-color="#F5F5F5" offset="0.2025463%"></stop>
            <stop stop-color="#B0B0B0" offset="100%"></stop>
        </linearGradient>
        <linearGradient x1="0.000131777892%" y1="50.0024067%" x2="99.9955489%" y2="50.0024067%" id="linearGradient-10">
            <stop stop-color="#BABABA" offset="0%"></stop>
            <stop stop-color="#919191" offset="25.68%"></stop>
        </linearGradient>
        <linearGradient x1="-0.00197093229%" y1="50.006999%" x2="99.9945268%" y2="50.006999%" id="linearGradient-11">
            <stop stop-color="#F5F5F5" offset="0.2025463%"></stop>
            <stop stop-color="#B0B0B0" offset="100%"></stop>
        </linearGradient>
        <linearGradient x1="0.0153403799%" y1="49.9869268%" x2="100.004067%" y2="49.9869268%" id="linearGradient-12">
            <stop stop-color="#F08788" offset="0.3534226%"></stop>
            <stop stop-color="#D64C59" offset="85.73%"></stop>
        </linearGradient>
        <linearGradient x1="0.708976977%" y1="49.9170373%" x2="100.325608%" y2="49.9170373%" id="linearGradient-13">
            <stop stop-color="#F08788" offset="0.3534226%"></stop>
            <stop stop-color="#D64C59" offset="85.73%"></stop>
        </linearGradient>
        <linearGradient x1="0.194800669%" y1="50.0512915%" x2="100.070202%" y2="50.0512915%" id="linearGradient-14">
            <stop stop-color="#F08788" offset="0.3534226%"></stop>
            <stop stop-color="#D64C59" offset="85.73%"></stop>
        </linearGradient>
        <linearGradient x1="0.137031342%" y1="50.0553557%" x2="100.019052%" y2="50.0553557%" id="linearGradient-15">
            <stop stop-color="#F08788" offset="0.3534226%"></stop>
            <stop stop-color="#D64C59" offset="85.73%"></stop>
        </linearGradient>
        <linearGradient x1="-0.0123484013%" y1="50.0403718%" x2="100.002756%" y2="50.0403718%" id="linearGradient-16">
            <stop stop-color="#F08788" offset="0.3534226%"></stop>
            <stop stop-color="#D64C59" offset="85.73%"></stop>
        </linearGradient>
        <linearGradient x1="-0.0956285541%" y1="49.9922515%" x2="99.980019%" y2="49.9922515%" id="linearGradient-17">
            <stop stop-color="#F08788" offset="0.3534226%"></stop>
            <stop stop-color="#D64C59" offset="85.73%"></stop>
        </linearGradient>
        <linearGradient x1="-0.300474459%" y1="50.2742622%" x2="99.7968196%" y2="50.2742622%" id="linearGradient-18">
            <stop stop-color="#F08788" offset="0.3534226%"></stop>
            <stop stop-color="#D64C59" offset="85.73%"></stop>
        </linearGradient>
    </defs>
    <g id="lingua-landingpage" stroke="none" stroke-width="1" fill="none" fill-rule="evenodd">
        <g id="LA-Landing---V4-slide-2" transform="translate(-737.000000, -335.000000)" fill-rule="nonzero">
            <g id="02_home2" transform="translate(737.000000, 335.000000)">
                <path d="M624.75,247 C625.15,254.7 624.65,262.4 621.95,269.6 C621.95,270 621.9,270.4 621.9,270.8 C621.4,271.6 620.85,272 620.85,272.8 C620.85,273.2 620.8,273.6 620.8,274 C620.25,275.6 619.15,276.8 618.6,278.4 C616.2,284.8 612.7,290.35 608,296.2 C607.4,297 607.3,297.8 606.7,298.55 C598.5,308.25 590,317.05 579.35,325.55 C573.5,329.95 567.6,334.3 561.3,338.2 C553.95,342.4 547.05,346.6 539.25,350.7 C538.7,351.05 537.75,351 537.15,351.3 C515.3,362.85 492.5,370 470.1,375.3 C468.1,375.9 465.7,376.45 463.7,377 C462.7,377.3 462.4,376.9 461.4,377.2 C435.25,383.3 410,385.05 384.9,384.85 C333.4,384.25 285.1,371.25 233.35,354.55 C222.45,351 212.25,347.45 201.05,343.95 C193.3,341.75 185.45,339.55 177.55,336.95 C176.1,336.65 174.15,336.35 172.7,336.05 C134.5,324.25 94.55,321.4 53.2,314.5 C46.2,313.3 39.05,311.3 32.35,308.9 C29.25,307.85 27.05,306.4 23.9,305 C12.75,299.25 5.65,290.9 2.4,280.85 C-2.85,264.2 2.4,248.55 10.7,233.65 C10.75,233.25 11.7,233.3 11.75,232.9 C14.9,226 20.55,220.4 26,214.1 C34.95,204.45 45.4,196.55 57,188.45 C62.2,184.95 67.7,182.25 72.9,178.8 C76.3,176.75 80.1,175.1 83.5,173.05 C104.5,162.35 125.5,154.65 147.6,148.75 C148.6,148.45 148.95,148.85 149.9,148.55 C220.4,129.6 284.55,135.1 350.55,152.85 C351.45,153.15 351.9,152.8 352.8,153.15 C382.9,161.65 412.9,171.6 445.1,180.95 C470.25,187.75 495.6,192.85 522.8,196.85 C547.95,200.2 572,201.25 595.6,210.5 C599.8,212.3 603.15,214.55 606.9,216.8 C609.15,218.7 611.25,219.85 613,221.8 C615.4,224.95 618.2,227.7 620.05,231.25 C622.65,236.5 624.5,241.75 624.75,247 C624.75,247 624.75,247 624.75,247 Z" id="Path" fill="#9AC6E8"></path>
                <ellipse id="Oval" fill="#495C81" opacity="0.22" cx="355.35" cy="246.85" rx="71.45" ry="41.25"></ellipse>
                <path d="M429.35,340.7 L160.85,185.65 C150.6,179.75 150.6,170.15 160.85,164.2 L192.5,145.95 C202.75,140.05 219.35,140.05 229.6,145.95 L498.1,301 C508.35,306.9 508.35,316.5 498.1,322.45 L466.45,340.7 C456.2,346.6 439.6,346.6 429.35,340.7 Z" id="Path" fill="#495C81" opacity="0.22"></path>
                <path d="M290.1,303 L228.95,267.65 C218.7,261.75 221.25,254 221.4,248.5 L260.6,227.95 C270.85,222.05 287.45,222.05 297.7,227.95 L366.3,264.7 C367.8,275.45 367.3,280.1 358.85,284.7 L327.2,303 C316.95,308.95 300.35,308.95 290.1,303 Z" id="Path" fill="#495C81" opacity="0.22"></path>
                <path d="M470.95,262.35 C470.95,262.35 474.9,261.05 479.45,261.2 C496.3,266.1 500.6,262.7 486.4,255.6 C485.7,255.25 489.4,255.65 488.4,254.55 C490.1,255 529.3,271.9 526.3,274.9 C523.3,277.95 489.85,273.1 470.95,262.35 Z" id="Path" fill="url(#linearGradient-1)" opacity="0.52"></path>
                <path d="M416.1,222.3 C416.1,222.3 415.5,216.9 420.05,217.1 C449.4,227.5 444.7,216.95 430.5,209.85 C429.8,209.5 433.5,209.9 432.5,208.8 C434.2,209.25 469.6,230.1 466.6,233.1 C463.65,236.15 437.65,231.7 416.1,222.3 Z" id="Path" fill="url(#linearGradient-2)" opacity="0.52"></path>
                <path d="M114.85,306.6 C114.85,306.6 116.65,306.45 119.45,306.65 C128.4,311.2 149.15,313.8 130.1,308.2 C129.35,308 135.35,305.7 134.4,304.6 C136.1,305.05 170.2,317.25 167.2,320.25 C164.2,323.25 133.75,317.35 114.85,306.6 Z" id="Path" fill="url(#linearGradient-3)" opacity="0.52"></path>
                <path d="M181.5,258.95 C181.5,258.95 189.9,257.95 189.9,264.45 C195,267.2 208.05,279.75 215.25,273.3 C222.45,266.85 186.8,255.05 184.55,255.05 C182.3,255.05 181.5,258.95 181.5,258.95 Z" id="Path" fill="url(#linearGradient-4)" opacity="0.52"></path>
                <path d="M412,342.95 L143.5,187.9 C133.45,182.65 135.65,165.55 135.8,160 L175.1,148.2 C185.35,142.3 201.95,142.3 212.2,148.2 L488.75,294.35 C489.5,305.15 492.6,317.4 480.7,324.65 L449.05,342.9 C438.85,348.85 422.25,348.85 412,342.95 Z" id="Path" fill="url(#linearGradient-5)"></path>
                <path d="M278.75,298.8 L217.6,263.45 C207.35,257.55 209.9,249.8 210.05,244.3 L249.25,223.75 C259.5,217.85 276.1,217.85 286.35,223.75 L354.95,260.5 C356.45,271.25 355.95,275.9 347.5,280.5 L315.85,298.75 C305.6,304.7 288.95,304.7 278.75,298.8 Z" id="Path" fill="url(#linearGradient-6)"></path>
                <path d="M278.75,290.6 L217.6,255.25 C207.35,249.35 207.35,239.75 217.6,233.8 L249.25,215.55 C259.5,209.65 276.1,209.65 286.35,215.55 L347.5,250.9 C357.75,256.8 357.75,266.4 347.5,272.35 L315.85,290.6 C305.6,296.55 288.95,296.55 278.75,290.6 Z" id="Path" fill="url(#linearGradient-7)"></path>
                <path d="M286.6,281.6 L230,248.85 C220.5,243.35 222.9,236.2 223,231.1 L259.3,212.1 C268.8,206.6 284.2,206.6 293.7,212.1 L357.2,246.15 C358.6,256.1 358.15,260.4 350.3,264.65 L321,281.6 C311.5,287.05 296.1,287.05 286.6,281.6 Z" id="Path" fill="url(#linearGradient-8)"></path>
                <path d="M286.6,272.75 L230,240 C220.5,234.5 220.5,225.65 230,220.15 L259.3,203.25 C268.8,197.75 284.2,197.75 293.7,203.25 L350.3,236 C359.8,241.5 359.8,250.35 350.3,255.85 L321,272.75 C311.5,278.2 296.1,278.2 286.6,272.75 Z" id="Path" fill="url(#linearGradient-9)"></path>
                <path d="M412,325.75 L143.5,170.7 C133.25,164.8 135.8,157.05 135.95,151.55 L175.15,131 C185.4,125.1 202,125.1 212.25,131 L488.2,287.5 C489.7,298.25 489.2,302.9 480.75,307.5 L449.1,325.75 C438.85,331.65 422.25,331.65 412,325.75 Z" id="Path" fill="url(#linearGradient-10)"></path>
                <path d="M412,315 L143.5,159.95 C133.25,154.05 133.25,144.45 143.5,138.5 L175.15,120.25 C185.4,114.35 202,114.35 212.25,120.25 L480.75,275.3 C491,281.2 491,290.8 480.75,296.75 L449.1,315 C438.85,320.9 422.25,320.9 412,315 Z" id="Path" fill="url(#linearGradient-11)"></path>
                <g id="Group" transform="translate(168.500000, 135.000000)">
                    <g fill="#2D3C58">
                        <polygon id="Path" points="33.9 0.15 40.25 3.8 6.7 17.1 0.35 13.45"></polygon>
                        <path d="M16.1,22.55 L9.75,18.9 L34.95,8.9 L41.3,12.55 L16.1,22.55 Z M43.95,11.5 L37.6,7.85 L43.3,5.6 L49.65,9.25 L43.95,11.5 Z" id="Shape"></path>
                        <path d="M44.3,14.35 L50.25,17.75 L47.55,18.8 L47.65,18.85 C49.55,18.75 53.2,18.6 56.95,20.8 C59,21.95 60.25,23.65 60.2,24.8 C60.15,25.95 59.45,27.45 54.55,29.45 L38.8,35.7 L32.45,32.05 L46.2,26.6 C47.95,25.9 51.4,24.55 48.1,22.6 C44.45,20.5 40.75,22 39.2,22.6 L25.5,28 L19.15,24.35 L44.3,14.35 Z" id="Path"></path>
                        <path d="M66.85,48.9 C63.1,50.4 60.45,51.2 57.3,51.45 C52.5,51.75 45.85,50.65 40.6,47.6 C33.2,43.35 35.7,39.65 38.85,37.95 L46.2,42.2 C44.6,43.7 47,45.1 47.4,45.35 C48.2,45.8 52.65,48.3 59.4,45.6 L60.15,45.3 L60.05,45.25 C57.95,45.45 54,45.25 50.65,43.3 C44.85,39.95 45.1,35.05 53.2,31.85 C61.8,28.45 71.95,29.45 77.5,32.65 C79.85,34 81.2,35.75 80.2,37.3 L80.3,37.35 L82.65,36.4 L89,40.05 L66.85,48.9 Z M58.45,41 C61.5,42.75 66.3,42.95 69.9,41.5 C73.95,39.9 74.05,37.6 71.2,35.95 C68.5,34.4 63.5,34 59.8,35.45 C55.8,37.05 55.8,39.45 58.45,41 Z" id="Shape"></path>
                        <path d="M86.45,63.2 L80.45,59.75 L83.15,58.7 L83.05,58.65 C78.55,59.2 75.65,57.8 74.05,56.85 C72.75,56.1 70.05,54.2 71,52 C71.8,50.05 73.4,49.2 76.85,47.8 L91.9,41.8 L98.25,45.45 L84.3,51 C82.6,51.7 79.25,53 82.65,54.95 C84.5,56 87.4,56.6 91.4,55 L105.25,49.5 L111.6,53.15 L86.45,63.2 Z" id="Path"></path>
                        <path d="M111.85,77.85 L105.5,74.2 L108.2,73.1 L108.1,73.05 C104.6,73.4 100.8,72.35 98.3,70.9 C91.55,67 93.9,62.25 101.1,59.4 C109.35,56.1 119.55,56.95 125.2,60.25 C128.7,62.25 128.65,64.2 127.85,65.25 L127.95,65.3 L130.65,64.25 L137,67.9 L111.85,77.85 Z M106.35,68.65 C110.35,70.95 115.65,70.15 118.1,69.15 C121.15,67.95 122.75,65.6 119.15,63.5 C115.5,61.4 110.3,61.9 107.4,63.05 C105.05,64.05 102.5,66.45 106.35,68.65 Z" id="Shape"></path>
                    </g>
                    <g transform="translate(119.500000, 72.000000)" fill="#EA6074">
                        <path d="M17.85,20.55 L11.5,16.9 L14.2,15.8 L14.1,15.75 C10.6,16.1 6.8,15.05 4.3,13.6 C-2.45,9.7 -0.1,4.95 7.1,2.1 C15.35,-1.2 25.55,-0.35 31.2,2.95 C34.7,4.95 34.65,6.9 33.85,7.95 L33.95,8 L36.65,6.95 L43,10.6 L17.85,20.55 Z M12.35,11.35 C16.35,13.65 21.65,12.85 24.1,11.85 C27.15,10.65 28.75,8.3 25.15,6.2 C21.5,4.1 16.3,4.6 13.4,5.75 C11.05,6.7 8.5,9.15 12.35,11.35 Z" id="Shape"></path>
                        <polygon id="Path" points="53.95 16.85 57 18.6 51.3 20.85 48.25 19.1 28.8 26.8 22.45 23.15 41.9 15.45 38.75 13.65 44.45 11.4 47.6 13.2 56 9.85 62.35 13.5"></polygon>
                        <polygon id="Path" points="65.85 23.7 68.9 25.45 63.2 27.7 60.15 25.95 40.7 33.65 34.35 30 53.8 22.3 50.65 20.5 56.35 18.25 59.5 20.05 67.9 16.7 74.25 20.35"></polygon>
                        <path d="M67.25,49.05 L60.9,45.4 L63.6,44.3 L63.5,44.25 C60,44.6 56.2,43.55 53.7,42.1 C46.95,38.2 49.3,33.45 56.5,30.6 C64.75,27.3 74.95,28.15 80.6,31.45 C84.1,33.45 84.05,35.4 83.25,36.45 L83.35,36.5 L86.05,35.45 L92.4,39.1 L67.25,49.05 Z M61.75,39.9 C65.75,42.2 71.05,41.4 73.5,40.4 C76.55,39.2 78.15,36.85 74.55,34.75 C70.9,32.65 65.7,33.15 62.8,34.3 C60.45,35.25 57.95,37.65 61.75,39.9 Z" id="Shape"></path>
                        <path d="M101.4,59.45 C94.55,61.05 85.6,60.45 79.9,57.15 C73.45,53.45 74.5,48.2 82,45.25 C89.4,42.3 100.25,42.75 106.6,46.4 C112.2,49.65 112.4,54 107.3,57.1 L100.85,53.4 C101.9,52.3 102.45,50.85 99.8,49.35 C96.95,47.55 92,47.55 88.35,48.95 C84.7,50.4 84,52.65 87,54.4 C89.65,55.9 92.7,55.95 94.95,55.7 L101.4,59.45 Z" id="Path"></path>
                        <polygon id="Path" points="127 50.85 133.35 54.5 115.85 61.45 115.95 61.5 130.95 61.3 138.5 65.65 119.45 65.4 113.05 75.5 105.85 71.35 111.95 63.1 111.85 63.05 99.75 67.85 93.4 64.2"></polygon>
                    </g>
                    <polygon id="Path" fill="#EA6074" points="208.2 144.25 201.85 140.6 209.55 137.55 215.9 141.2"></polygon>
                    <path d="M239.75,154.45 C239.1,154.1 238.65,153.65 238.45,153.15 C238.1,152.15 238.8,151.15 240.4,150.55 L262.4,141.65 C263.95,141 266.15,140.85 268.05,141.2 C270,141.55 271.4,142.35 271.8,143.35 L277,157.15 C277.35,158.15 276.65,159.15 275.05,159.75 C273.5,160.4 271.3,160.55 269.4,160.2 L242.2,155.3 C241.25,155.15 240.4,154.85 239.75,154.45 Z" id="Path" fill="#EA6074"></path>
                    <path d="M248.25,153.6 C247.6,153.25 247.2,152.8 247,152.3 C246.65,151.35 247.35,150.35 248.9,149.75 L270.4,141.05 C271.95,140.45 274.05,140.25 275.95,140.6 C277.85,140.95 279.25,141.75 279.6,142.7 L284.65,156.15 C285,157.1 284.3,158.1 282.75,158.7 C281.2,159.3 279.1,159.5 277.2,159.15 L250.65,154.35 C249.7,154.25 248.9,153.95 248.25,153.6 Z" id="Path" fill="#FFFFFF"></path>
                </g>
                <g id="Group" opacity="0.6" transform="translate(270.500000, 175.000000)" fill="#495C81">
                    <path d="M0.2,36.55 C0.2,59.35 32.2,77.8 71.65,77.8 C98.65,77.8 122.15,69.15 134.3,56.4 L37.3,0.35 C15.2,7.4 0.2,20.95 0.2,36.55 Z" id="Path" opacity="0.3"></path>
                </g>
                <path d="M357.5,164.75 C356.55,161.5 356.3,157.6 357.5,156.75 C358.7,155.9 360.3,152.9 356.7,151.85 C353.1,150.8 348.75,153.45 348.25,151.85 C347.75,150.25 338.35,152.25 334.35,151.4 C330.35,150.55 316.75,156.25 315.85,152.25 C314.95,148.2 316.75,143.95 318.15,142.1 C319.55,140.2 323.35,137.05 325.1,135.4 C326.9,133.75 328.15,130.75 327.25,128.7 C326.35,126.65 327.25,122.05 327.25,122.05 C327.25,122.05 332.95,121.25 334.35,119.4 C335.75,117.5 337.65,119.05 342.15,119.4 C346.65,119.75 353.35,118.45 355.9,116.75 C358.45,115 363.2,107.75 364.9,108.75 C366.6,109.7 380.35,105.5 382.6,103.4 C384.85,101.3 390.2,100.15 388.2,98.05 C386.25,95.95 381.05,96.65 377.95,97 C374.85,97.35 362.3,98.1 360.1,96.6 C357.9,95.1 358.1,93.65 357.6,92.7 C357.1,91.75 354,85.5 352.2,87.35 C350.4,89.2 350.9,94.15 350.95,94.2 C351,94.25 348.6,100.45 348.35,98.05 C348.1,95.65 332.7,100.7 332.7,100.7 L325.2,99 C325.2,99 324.7,90.6 325.2,88.6 C325.7,86.65 332,81.3 334.45,80.75 C336.9,80.2 340.85,75.6 341,75.5 C341.15,75.4 339.7,71.05 337.75,71.25 C335.8,71.5 332.85,69.5 334.45,68.6 C336.05,67.7 334.1,66.55 336.05,65.95 C338,65.35 340.8,65.15 341.95,63.3 C343.05,61.45 349.25,53.55 349.55,49.95 C349.85,46.3 352.8,52.5 353,47.3 C353.2,42.05 351.5,39.4 350.65,37.95 C349.8,36.5 349.5,33.25 353,33.9 C356.5,34.55 357.3,30.75 360.2,33.9 C363.1,37.05 364.6,35.2 366.9,36.55 C369.2,37.9 376.8,38.4 377.9,37.85 C378.15,37.75 378.7,37.6 379.45,37.45 C362.2,15.3 335.25,1.05 305,1.05 C301.75,1.05 298.55,1.2 295.35,1.55 C295.35,1.6 295.35,1.65 295.4,1.65 C296.55,6.05 305.05,3.5 308.6,5.55 C312.15,7.6 317.4,3.6 315.95,7.15 C314.5,10.65 297.45,12.5 297.45,12.5 C297.45,12.5 292.3,13.45 292.8,14.3 C293.3,15.15 291.45,18.65 292.8,21.6 C294.15,24.55 290.05,22.45 288.2,23.2 C286.35,23.95 285.85,26.95 284.7,28.55 C283.6,30.15 285.25,32.9 285.7,32.6 C286.2,32.3 287.6,36.25 288.15,39.15 C288.65,42.05 283.5,44.55 282.15,45.35 C280.75,46.15 269.65,41.9 269.65,41.9 C269.65,41.9 266.75,39.55 265,39.25 C263.25,38.95 262.8,39.85 260.35,41.9 C257.9,43.95 260.55,47.1 261.95,52.6 C263.35,58.05 254.35,53 252.8,51.6 C251.25,50.2 243.4,53.5 239.8,55.25 C236.2,57 226.6,56.05 223.3,57.9 C221.85,58.75 220.6,57.15 219.7,54.9 C216.6,61.4 214.25,68.3 212.7,75.55 C215.6,75.7 218.75,76.55 218.65,79.3 C218.45,84.4 218.6,88.55 223.3,90 C228,91.45 232,88.15 233.9,90 C235.8,91.85 236.5,96.55 238.1,95.35 C239.7,94.1 249.25,85.7 251.1,79.3 C252.9,72.9 253.15,86.05 251.1,90 C249.05,93.95 249.45,99.75 251.1,100.7 C252.75,101.65 256.5,101 255.75,106.05 C255,111.1 249.1,114.05 249.1,114.05 C249.1,114.05 248.3,120.45 249.8,121.3 C251.3,122.15 254.05,123.55 255.85,124.7 C257.65,125.85 267.45,129.5 265,132.8 C262.55,136.05 260.25,134.1 259.15,135.45 C258.05,136.8 262.4,138.15 261.4,140.8 C260.4,143.45 258.45,148.1 255.7,148.8 C252.95,149.5 248.05,153.15 246.45,155.65 C244.85,158.2 247.9,161.3 245.85,162.5 C244.55,163.25 242.65,163.5 241,164.6 C247.55,170.65 255,175.8 263.1,179.8 C264.05,176.45 266,172.75 266.2,172.45 C266.55,171.95 264.95,168.5 267.4,167.1 C269.85,165.7 273.8,163.4 274.6,167.1 C275.4,170.8 282.05,177.35 283.6,177.8 C285.15,178.25 288.5,176.05 290.55,177.8 C292.6,179.55 294.8,181.4 296.65,182.3 C297.85,182.9 303.8,187.1 308.45,189.55 C326.75,188.9 343.75,183 357.95,173.3 C358,169.9 357.95,166.4 357.5,164.75 Z M311.2,29.9 L313.5,23.1 C312.5,18.5 313.9,16.2 315.6,15.2 C317.3,14.2 322.95,13.4 325.1,12.4 C327.25,11.4 330.5,9.5 329.75,12.4 C328.95,15.3 327.8,16.35 327.95,18.75 C328.1,21.2 326.95,21.45 325.1,23.05 C323.25,24.65 324.2,22.85 321.5,25.8 C318.8,28.75 318.2,32.4 315.85,31.05 C313.45,29.75 311.2,29.9 311.2,29.9 Z" id="Shape" fill="#FFFFFF" opacity="0.49"></path>
                <g id="XMLID_2_" transform="translate(210.500000, 1.000000)">
                    <g id="Group">
                        <path d="M168.8,36.35 C181.25,52.35 188.65,72.4 188.65,94.25 C188.65,126.65 172.3,155.3 147.35,172.25 C147.45,168.9 147.45,165.4 146.95,163.75 C146,160.5 145.75,156.6 146.95,155.75 C148.15,154.9 149.75,151.9 146.15,150.85 C142.55,149.8 138.2,152.45 137.7,150.85 C137.2,149.25 127.8,151.25 123.8,150.4 C119.8,149.55 106.2,155.25 105.3,151.25 C104.4,147.2 106.2,142.95 107.6,141.05 C109,139.15 112.8,136 114.55,134.35 C116.35,132.7 117.6,129.7 116.7,127.65 C115.8,125.6 116.7,121 116.7,121 C116.7,121 122.4,120.2 123.8,118.3 C125.2,116.4 127.1,117.95 131.6,118.3 C136.1,118.65 142.85,117.35 145.35,115.65 C147.9,113.9 152.65,106.65 154.35,107.65 C156.05,108.6 169.8,104.4 172.05,102.3 C174.3,100.2 179.65,99.05 177.65,96.95 C175.7,94.85 170.5,95.55 167.4,95.9 C164.3,96.25 151.75,97 149.55,95.5 C147.35,94 147.55,92.55 147.05,91.6 C146.55,90.65 143.45,84.4 141.65,86.25 C139.85,88.1 140.35,93.05 140.4,93.1 C140.45,93.15 138.05,99.35 137.8,96.95 C137.6,94.55 122.15,99.6 122.15,99.6 L114.65,97.9 C114.65,97.9 114.15,89.5 114.65,87.5 C115.15,85.55 121.45,80.2 123.9,79.65 C126.35,79.1 130.3,74.5 130.45,74.4 C130.6,74.3 129.15,69.9 127.2,70.15 C125.25,70.4 122.3,68.4 123.9,67.45 C125.5,66.55 123.55,65.4 125.5,64.8 C127.45,64.2 130.25,64 131.4,62.15 C132.5,60.3 138.7,52.4 138.95,48.8 C139.25,45.15 142.2,51.35 142.4,46.15 C142.6,40.9 140.9,38.25 140.05,36.8 C139.25,35.35 138.9,32.1 142.4,32.8 C145.9,33.45 146.7,29.65 149.6,32.8 C152.5,35.95 154,34.1 156.25,35.45 C158.55,36.8 166.15,37.35 167.25,36.75 C167.5,36.65 168.05,36.5 168.8,36.35 Z" id="Path" fill="url(#linearGradient-12)"></path>
                        <path d="M137.7,107.6 C138.6,109.1 137.2,112.65 136.2,112.1 C135.2,111.55 135.1,112.95 133.05,110.3 C131,107.65 131,107.65 131,107.65 C132.6,105.25 133.25,103.6 134.35,104.95 C135.55,106.35 136.8,106.1 137.7,107.6 Z" id="Path" fill="url(#linearGradient-13)"></path>
                        <path d="M114.55,11.4 C116.7,10.4 119.95,8.5 119.2,11.4 C118.4,14.3 117.25,15.35 117.4,17.75 C117.55,20.2 116.4,20.45 114.55,22.05 C112.7,23.65 113.65,21.85 110.95,24.8 C108.3,27.75 107.6,31.4 105.3,30.05 C102.95,28.7 100.65,28.85 100.65,28.85 L102.95,22.05 C101.95,17.45 103.35,15.15 105,14.15 C106.75,13.25 112.4,12.4 114.55,11.4 Z" id="Path" fill="url(#linearGradient-14)"></path>
                        <path d="M97.95,4.45 C101.5,6.5 106.75,2.5 105.3,6 C103.85,9.5 86.8,11.35 86.8,11.35 C86.8,11.35 81.65,12.3 82.15,13.15 C82.65,14 80.8,17.5 82.15,20.45 C83.5,23.4 79.4,21.3 77.55,22.05 C75.7,22.8 75.2,25.8 74.05,27.4 C72.95,29 74.6,31.75 75.05,31.45 C75.55,31.15 76.95,35.1 77.45,38 C77.95,40.9 72.8,43.4 71.45,44.2 C70.05,45 58.95,40.75 58.95,40.75 C58.95,40.75 56.05,38.4 54.3,38.1 C52.55,37.8 52.1,38.7 49.65,40.75 C47.2,42.8 49.85,45.95 51.25,51.45 C52.65,56.9 43.7,51.85 42.1,50.45 C40.55,49.05 32.7,52.35 29.1,54.1 C25.5,55.85 15.9,54.9 12.6,56.8 C11.15,57.65 9.9,56.05 9,53.8 C22.85,24.7 51.1,3.8 84.6,0.4 C84.6,0.45 84.6,0.5 84.65,0.5 C85.95,4.95 94.4,2.4 97.95,4.45 Z" id="Path" fill="url(#linearGradient-15)"></path>
                        <path d="M97.85,188.5 C96.7,188.55 95.5,188.55 94.35,188.55 C79.3,188.55 65.1,185 52.5,178.75 C53.45,175.4 55.4,171.7 55.6,171.4 C55.95,170.9 54.35,167.45 56.8,166.05 C59.25,164.65 63.2,162.3 64,166.05 C64.85,169.75 71.45,176.3 73,176.75 C74.55,177.2 77.9,175 79.95,176.75 C82,178.5 84.25,180.35 86.05,181.25 C87.25,181.85 93.2,186.05 97.85,188.5 Z" id="Path" fill="url(#linearGradient-16)"></path>
                        <path d="M45.25,123.6 C47.05,124.75 56.85,128.4 54.4,131.7 C51.95,135 49.65,133 48.6,134.4 C47.55,135.8 51.85,137.1 50.85,139.75 C49.85,142.4 47.9,147.05 45.15,147.75 C42.4,148.45 37.5,152.1 35.9,154.6 C34.3,157.15 37.35,160.25 35.3,161.45 C34,162.2 32.1,162.45 30.45,163.55 C11.8,146.3 0.1,121.65 0.1,94.25 C0.1,87.45 0.85,80.85 2.2,74.5 C5.1,74.65 8.25,75.5 8.15,78.25 C7.95,83.35 8.1,87.5 12.8,88.95 C17.5,90.4 21.5,87.1 23.4,88.95 C25.3,90.8 26,95.5 27.6,94.3 C29.2,93.05 38.8,84.65 40.6,78.25 C42.4,71.85 42.65,85 40.6,88.95 C38.55,92.9 38.95,98.7 40.6,99.65 C42.25,100.6 46,99.95 45.25,105 C44.5,110.05 38.6,113 38.6,113 C38.6,113 37.8,119.4 39.3,120.25 C40.7,121.1 43.45,122.45 45.25,123.6 Z" id="Path" fill="url(#linearGradient-17)"></path>
                        <path d="M37.35,67.5 C37.65,71.25 35.9,75.5 35.9,75.5 L34.2,78.15 L31.25,75.5 C30.5,72.4 31.45,70.2 33.15,70.15 C34.8,70.15 37.05,63.8 37.35,67.5 Z" id="Path" fill="url(#linearGradient-18)"></path>
                    </g>
                </g>
                <g id="Group" opacity="0.09" transform="translate(244.500000, 18.000000)" fill="#2D3C58">
                    <path d="M154.65,77.25 C154.65,45.65 139.1,17.7 115.25,0.55 C111.9,0.25 108.55,0.05 105.15,0.05 C47.15,0.05 0.15,47.05 0.15,105.05 C0.15,125.35 5.9,144.3 15.9,160.35 C29.15,167.45 44.3,171.5 60.4,171.5 C112.45,171.55 154.65,129.35 154.65,77.25 Z" id="Path"></path>
                </g>
                <path d="M304.85,190.4 C279.45,190.4 255.55,180.5 237.55,162.55 C219.6,144.6 209.7,120.7 209.7,95.25 C209.7,69.8 219.6,45.95 237.55,27.95 C255.5,9.95 279.4,0.1 304.85,0.1 C330.25,0.1 354.15,10 372.15,27.95 C390.1,45.9 400,69.8 400,95.25 C400,120.7 390.1,144.55 372.15,162.55 C354.15,180.5 330.25,190.4 304.85,190.4 Z M304.85,1.8 C279.9,1.8 256.4,11.5 238.8,29.15 C221.15,46.8 211.45,70.25 211.45,95.2 C211.45,120.15 221.15,143.6 238.8,161.25 C256.45,178.9 279.9,188.6 304.85,188.6 C329.8,188.6 353.3,178.9 370.9,161.25 C388.55,143.6 398.25,120.15 398.25,95.2 C398.25,70.25 388.55,46.8 370.9,29.15 C353.3,11.55 329.8,1.8 304.85,1.8 Z" id="Shape" fill="#D1526B"></path>
                <path d="M182.4,195.4 C181.05,197.95 173.55,205.05 172.5,206.95 C171.5,208.85 172.45,208.25 173.1,208.35 C173.8,208.45 183.35,200.6 184.15,198.45 C185,196.35 182.4,195.4 182.4,195.4 Z" id="Path" fill="#FCC7BE"></path>
                <path d="M181.95,170.45 C181.95,170.45 179.7,177.7 181.95,184.5 C184.2,191.3 187.45,184.5 187.45,184.5 C187.45,184.5 187.15,171.55 187,170.95 C186.8,170.35 181.95,170.45 181.95,170.45 Z" id="Path" fill="#FF8240"></path>
                <path d="M478.65,181.2 C478.65,180.8 478.65,177.15 478.65,177.15 C478.65,177.15 475.95,178 475.5,176.1 C475.1,174.2 473.85,168.55 477.25,166.5 C480.65,164.45 481.7,167.65 482.25,169.25 C482.8,170.9 482.7,176.3 483.4,177.55 C484.1,178.8 485.6,180.8 484.9,181.5 C484.2,182.2 480.6,183.25 480,183.4 C479.4,183.55 476.7,182.7 476.7,182.7 L478.65,181.2 Z" id="Path" fill="#D67567"></path>
                <path d="M478.05,169.45 C478.05,169.45 474.2,168.2 475,165.85 C475.75,163.45 477.25,163.2 478.6,163.9 C479.45,164.35 481.35,165.95 482.05,166.15 C482.8,166.35 485.25,169.4 484.7,171.65 C484.15,173.9 483,176.35 482.05,176 C481.1,175.65 480.8,172.75 480.4,172 C480,171.25 478.9,172.25 478.65,172.2 C478.4,172.1 478.05,169.45 478.05,169.45 Z" id="Path" fill="#2D3C58"></path>
                <path d="M474.85,209.7 C472.6,223.4 477.15,256.65 476.35,258 C475.55,259.35 469.8,260.6 469.4,261.7 C469,262.8 479.75,263.05 479.85,260.45 C479.95,257.85 481.4,225.2 483.15,220.6 C482.9,224 486.4,253.1 486.4,253.1 C486.4,253.1 486,252.55 485.05,252.7 C484.15,252.85 482.55,252 483.1,253.5 C483.65,255 488,257.3 489.25,255.55 C488.45,252.8 489.1,215.3 489.4,214.75 C489.7,214.2 489.4,209.85 489.25,208.1 C489.25,208.05 489.25,207.95 489.25,207.85 C485.35,213.2 477.9,210.95 474.85,209.7 Z" id="Path" fill="#354F72"></path>
                <path d="M469.45,192.05 C468.7,195.3 468,198.4 467.35,199.15 C466,200.8 459.9,202.25 458.55,201.95 C457.2,201.7 453.5,200.6 454.2,201.95 C457.05,207.4 468.35,205.1 470,204.4 C471.2,203.9 473.4,198.75 474.45,196.1 C473.75,194.95 470.95,193.05 469.45,192.05 Z" id="Path" fill="#D67567"></path>
                <g id="Group" transform="translate(469.000000, 178.500000)">
                    <path d="M23.95,8.9 C22.95,5.65 22.05,3.25 21.65,2.6 C20.85,1.3 17.5,-0.8 15.25,0.5 C15.15,3.35 13.1,3.85 9.65,2.7 C7.75,4.25 5.75,4.05 3.45,5.8 C2.2,6.75 1.15,10.8 0.25,14.65 C1.75,15.65 4.55,17.55 5.3,18.75 C5.65,17.85 5.9,17.2 5.9,17.2 C5.9,17.2 5.9,27.4 5.9,31.1 C5.9,31.15 5.9,31.2 5.9,31.25 C8.9,32.45 16.4,34.75 20.35,29.35 C20.3,27.1 21.25,18.3 21.85,14.3 C21.9,14.4 21.9,14.5 21.95,14.6 C21.95,13.95 21.95,13.45 21.95,13.45 C21.95,13.45 23.2,11.2 23.95,8.9 Z" id="Path" fill="#6A6ACE"></path>
                    <path d="M23.95,8.9 C23.2,11.2 21.9,13.45 21.9,13.45 C21.9,13.45 21.9,13.95 21.9,14.6 C22.95,18.05 27.6,31.3 26.85,34.9 C26.4,37.15 28.1,36.15 28.9,34.9 C29.15,28.1 26.2,16.25 23.95,8.9 Z" id="Path" fill="#D67567"></path>
                </g>
                <path d="M411.3,149.65 C410.45,150.95 409.55,152.25 408.25,153.25 C405.35,153.95 399,152 397.45,150.45 C395.9,149.65 395.4,149.85 394.45,150.55 C393.5,151.25 406.25,158.15 407.8,158.25 C409,158.35 412.75,155.75 415.2,153.7 C414.35,151.95 412.45,150.45 411.3,149.65 Z" id="Path" fill="#FCC7BE"></path>
                <path d="M428.05,139.25 C427.45,139.35 426.95,139.35 426.85,139.05 C426.45,138.1 427.25,136.7 427.9,135.75 C428.6,134.8 429.65,125.9 424,126.4 C418.35,126.9 421.25,134.85 421.65,135.85 C422.05,136.8 422.35,138.1 422.25,140.55 C422.25,140.55 421.45,140.95 420.3,141.55 C422.3,143.5 427.4,145.25 428.05,139.25 Z" id="Path" fill="#FCC7BE"></path>
                <path d="M416.95,215.25 C416.1,216.75 413.7,221.1 414.5,222.55 C415.45,224.3 419.85,218.15 420.35,216.45 C420.4,216.35 420.45,216.15 420.5,215.85 C418.9,216.15 417.7,215.7 416.95,215.25 Z" id="Path" fill="#354F72"></path>
                <g id="Group" transform="translate(416.500000, 162.000000)" fill="#354F72">
                    <path d="M14.05,44.35 C13.95,44.25 13.9,44.2 13.85,44.1 C13.45,43.05 15.25,3.45 15.05,1.5 C15.05,1.25 15,0.9 15,0.45 C12.8,8.35 3.7,7.05 0.45,6.3 C-0.25,8.95 0.25,12.45 0.65,14.45 C1.05,16.5 0.75,52.75 0.75,52.75 C0.75,52.75 0.65,52.95 0.45,53.25 C1.2,53.75 2.4,54.15 4,53.85 C4.75,49.9 7.65,29.95 8.85,18.75 C8.95,20.1 10.85,43.4 10.95,46.9 C11.75,46.65 12.85,45.95 14.05,44.35 Z" id="Path"></path>
                    <path d="M14.05,44.35 C12.85,45.95 11.8,46.65 10.9,46.9 C10.9,47.2 10.9,47.35 10.9,47.35 C10.9,47.35 17.7,49.2 18.65,48.25 C19.6,47.35 15.05,45.25 14.05,44.35 Z" id="Path"></path>
                </g>
                <g id="Group" transform="translate(411.000000, 138.500000)">
                    <path d="M21.2,1.05 C20.15,0 18.3,0.55 17.05,0.75 C16.4,6.7 11.3,5 9.3,3 C7.65,3.9 5.35,5.2 3.85,6.35 C2.4,7.5 1.45,9.3 0.3,11.1 C1.45,11.9 3.35,13.4 4.15,15.15 C4.85,14.55 5.45,14 5.85,13.55 C6.55,15.4 6.65,27.1 6,29.7 C6,29.7 6,29.7 6,29.7 C9.25,30.5 18.35,31.8 20.55,23.85 C20.4,20.35 20.75,9.75 20.95,10.95 C22.1,9.85 22.85,8.45 23.3,7.25 C22.7,4.15 22.05,1.75 21.2,1.05 Z" id="Path" fill="#6A6ACE"></path>
                    <path d="M25.55,32.95 C25.35,31.6 24.8,16.35 23.25,7.4 C22.8,8.55 22.05,9.95 20.9,11.1 C21.1,12.45 23.6,32.1 23.9,33 C24.15,33.8 25.85,34.8 25.55,32.95 Z" id="Path" fill="#FCC7BE"></path>
                </g>
                <path d="M109.45,230.85 C108.2,240.4 107.05,256.15 107.35,259 C107.75,263.1 109,263.1 109,262.65 C109,262.2 109.4,258.55 109.4,257.75 C109.4,257.1 111.85,240.75 113.6,234.45 C111.2,234.15 110,232.3 109.45,230.85 Z" id="Path" fill="#CE7E78"></path>
                <path d="M127.15,221.8 C126.65,221.75 126.3,221.65 126.05,221.55 C125.25,221.15 124.85,217.9 125.65,216.65 C126.45,215.4 127.7,215.45 127.7,212.55 C127.7,209.7 127.7,206.85 126.9,205.6 C126.1,204.35 118.35,204.8 118.75,210.1 C119.15,215.4 120.4,215 120.4,216.6 C120.4,218.2 120.4,220.7 119.6,221.5 C119.45,221.65 119.1,221.75 118.65,221.85 C120.2,222.85 123.45,224.1 127.15,221.8 Z" id="Path" fill="#CE7E78"></path>
                <path d="M117.9,211.3 C117.9,211.3 119.1,215.8 121.55,216.2 C123.2,216.2 125.2,213.75 125.2,212.1 C125.2,210.45 126,208.85 126.4,208.85 C126.8,208.85 129.25,205.6 128.45,203.95 C127.65,202.3 124.8,201.5 123.15,202.75 C121.5,203.95 119.9,203.95 118.65,205.6 C117.5,207.25 117.5,210.5 117.9,211.3 Z" id="Path" fill="#2D3C58"></path>
                <g id="Group" transform="translate(111.500000, 253.000000)" fill="#354F72">
                    <path d="M4.7,51.1 C4,50.9 -0.45,49.6 0.3,51.15 C1.1,52.8 6.4,55.65 7.65,54.8 C7.8,54.7 8,53.9 8.15,52.6 C6.65,52.8 5.5,51.95 4.7,51.1 Z" id="Path"></path>
                    <path d="M20.3,51.9 C20.25,51.9 20.25,51.85 20.2,51.65 C19.65,52.35 18.9,53.15 18.1,53.6 C18.3,54.45 18.5,55 18.7,55.15 C20.35,56.35 23.2,53.1 23.6,51.05 C23.15,49.9 21.1,51.5 20.3,51.9 Z" id="Path"></path>
                    <path d="M20.2,51.7 C19.7,48.25 21.5,4.65 21.5,1.15 C21.5,0.85 21.5,0.5 21.45,0.1 C11.85,3.1 5.35,1.2 2.45,0.1 C2.4,1.05 2.35,1.8 2.3,2.4 C1.9,6.9 4.35,49.5 4.75,51.15 C4.75,51.15 4.7,51.15 4.65,51.1 C5.45,51.95 6.65,52.8 8.1,52.6 C9.15,44.2 10.2,10.35 11.3,8.9 C12.5,7.25 12.5,8.1 12.95,10.1 C13.3,11.9 16.3,46.4 18.1,53.65 C18.9,53.2 19.65,52.4 20.2,51.7 Z" id="Path"></path>
                </g>
                <g id="Group" transform="translate(109.000000, 221.500000)">
                    <path d="M31.45,35.95 C31.15,33.6 30.05,18.65 27.95,9.05 C26.55,10.4 24.45,11.65 23.75,12.05 C25.15,18.55 28.8,37.55 30.5,38.4 C31.95,38.55 31.55,39 31.45,35.95 Z" id="Path" fill="#CE7E78"></path>
                    <path d="M24.45,0.85 C22.15,0.3 19.35,0.45 18.15,0.3 C14.45,2.65 11.2,1.35 9.6,0.4 C7.6,0.8 3.35,0.75 2,2.1 C1.5,2.6 1,5.45 0.45,9.4 C1.05,10.8 2.25,12.7 4.6,13.05 C5,11.6 5.4,10.7 5.7,10.65 C5.7,10.65 5.4,25.05 5.05,31.6 C7.95,32.65 14.45,34.6 24.05,31.6 C23.8,26.3 22.9,11.8 23.25,9.9 C23.3,9.7 23.5,10.55 23.85,12.05 C24.55,11.65 26.65,10.4 28.05,9.05 C27,4.5 25.85,1.15 24.45,0.85 Z" id="Path" fill="#6A6ACE"></path>
                </g>
                <path d="M194.7,186.25 C192.7,185.25 190.55,184.35 190.4,183.7 C190.1,182.55 191.15,178.75 190.4,175.6 C189.65,172.45 190.3,168.05 185.45,169.3 C180.6,170.6 182.2,177.15 182.3,178.9 C182.45,180.65 185.65,180.4 185.65,180.4 C185.65,180.4 186.05,181.25 186.1,182.8 C186.1,182.8 185.55,182.5 184.8,182.3 C182.2,188.9 184.4,196.85 194.7,186.25 Z" id="Path" fill="#FCC7BE"></path>
                <path d="M191,260.45 C190.4,261.15 187.95,263.95 187.95,264.7 C187.95,265.55 195.9,262.55 195.05,260.15 C195.05,260.1 195.05,260.05 195,260.05 C193.6,261.8 192.15,261.45 191,260.45 Z" id="Path" fill="#354F72"></path>
                <g id="Group" transform="translate(179.500000, 207.500000)" fill="#354F72">
                    <path d="M3.15,48.1 C3.15,48.15 3.15,48.2 3.15,48.2 C3.15,48.2 -0.7,51.1 0.4,51.7 C1.45,52.3 6.25,49.3 6.55,48.3 C5.35,48.85 3.9,48.6 3.15,48.1 Z" id="Path"></path>
                    <path d="M15.95,0.1 C10.35,6.15 3.65,3.2 1.45,0.1 C1.25,0.9 1.05,1.7 0.8,2.65 C-1.35,11.35 2.9,45.95 3.15,48.05 C3.9,48.55 5.35,48.85 6.55,48.25 C6.55,48.2 6.55,48.2 6.55,48.15 C6.55,47.25 4.6,26.85 6.65,13.3 C6.2,21 11.6,52.8 11.6,52.8 C11.6,52.8 11.55,52.85 11.45,52.95 C12.6,53.95 14.05,54.3 15.45,52.55 C14.6,49.3 14.05,16.65 16.15,11.4 C18.05,6.65 17.1,2.6 15.95,0.1 Z" id="Path"></path>
                </g>
                <g id="Group" transform="translate(179.500000, 182.000000)">
                    <path d="M20.75,13.4 C20.15,10.6 19.4,8.1 18.55,6.6 C18.1,5.8 16.7,5 15.2,4.25 C4.9,14.85 2.7,6.9 5.3,0.3 C4.85,0.2 4.3,0.15 3.75,0.25 C2.35,0.55 1.5,4.05 0.2,8.7 C-0.55,11.5 1.5,15.15 2.15,18 C2.65,20.3 2.25,22.3 1.45,25.65 C3.65,28.75 10.4,31.7 15.95,25.65 C15.4,24.55 14.85,24.4 14.45,23.5 C13.25,20.65 15.9,13.4 15.9,13.4 C15.9,13.4 16.2,14.35 16.6,15.85 C17.7,15.5 19.5,14.75 20.75,13.4 Z" id="Path" fill="#6A6ACE"></path>
                    <path d="M20.75,13.4 C19.5,14.75 17.7,15.5 16.65,15.85 C17.95,20.3 20.55,33.85 20.75,35.6 C20.8,36.2 21.55,41.6 21.6,41 C21.65,40.45 22.5,38.3 22.5,38.3 C23.1,36.9 22.45,21.45 20.75,13.4 Z" id="Path" fill="#FCC7BE"></path>
                </g>
                <path d="M180.7,172.55 C180.7,172.55 184.9,174 187.15,173.1 C189.45,172.15 188.2,186.55 189.05,187 C189.9,187.5 195.85,189.3 196.55,184.95 C196.8,183.55 194.05,182.1 194.05,180.6 C194.05,179.1 195.85,167.5 187.05,167.1 C180.95,166.8 180.7,172.55 180.7,172.55 Z" id="Path" fill="#FF8240"></path>
                <path d="M420.75,132.5 C420.75,132.5 419.35,129.75 419.5,128.75 C419.65,127.75 419.85,123.15 423.8,123.1 C426,123.1 427.15,125.45 427.15,125.45 C427.15,125.45 428.15,129.65 428.1,129.55 C428.05,129.4 426.55,127.3 426.55,127.3 C426.55,127.3 423.75,128.3 422.55,128 C421.35,127.75 420.75,132.5 420.75,132.5 Z" id="Path" fill="#DBA728"></path>
                <g id="Group" transform="translate(386.500000, 53.500000)">
                    <path d="M47.7,3.45 C47.7,0.85 44.9,-0.75 42.65,0.55 L4.95,22 C1.9,23.8 0,27.1 0,30.65 L0,37.9 L47.7,10.45 L47.7,3.45 Z" id="Path" fill="#000000"></path>
                    <path d="M0,54 C0,58.05 4.4,60.55 7.9,58.5 L42,39 C45.55,36.95 47.75,33.15 47.75,29 L47.75,23.35 L0,51.15 L0,54 Z" id="Path" fill="#CE9A09"></path>
                    <polygon id="Path" fill="#9B1F3A" points="0 37.85 0 51.15 47.7 23.4 47.7 10.45"></polygon>
                </g>
                <g id="Group" transform="translate(498.000000, 104.000000)">
                    <path d="M5.2,22.1 C2.15,23.9 0.25,27.2 0.25,30.75 L0.25,54.15 C0.25,58.2 4.65,60.7 8.15,58.65 L17.35,53.4 L17.35,15.2 L5.2,22.1 Z" id="Path" fill="#2F2F56"></path>
                    <path d="M42.95,0.7 L33.25,6.2 L33.25,44.3 L42.25,39.15 C45.8,37.1 48,33.3 48,29.15 L48,3.55 C48,1 45.2,-0.6 42.95,0.7 Z" id="Path" fill="#9B1F3A"></path>
                    <polygon id="Path" fill="#E5E5E5" points="17.35 15.25 17.35 53.4 33.25 44.35 33.25 6.2"></polygon>
                </g>
                <g id="Group" transform="translate(58.500000, 131.500000)">
                    <path d="M48.05,30.5 C48.05,28.25 46.85,26.15 44.9,25 L2.75,0.7 C1.6,0 0.1,0.85 0.1,2.2 L0.1,11.25 L48.05,38.95 L48.05,30.5 Z" id="Path" fill="#CA2438"></path>
                    <path d="M0.1,35.45 C0.1,37.4 1.15,39.2 2.85,40.2 L44.7,63.95 C46.2,64.8 48.05,63.75 48.05,62 L48.05,55.2 L0.1,27.5 L0.1,35.45 L0.1,35.45 Z" id="Path" fill="#CA2438"></path>
                    <polygon id="Path" fill="#FFC400" points="0.1 11.25 0.1 27.55 48.05 55.2 48.05 38.95"></polygon>
                </g>
                <g id="Group" transform="translate(63.000000, 129.000000)">
                    <path d="M48.05,30.25 C48.05,28 46.85,25.9 44.9,24.75 L2.75,0.45 C1.6,-0.25 0.1,0.6 0.1,1.95 L0.1,11 L48.05,38.7 L48.05,30.25 Z" id="Path" fill="#9B1F3A"></path>
                    <path d="M0.1,35.2 C0.1,37.15 1.15,38.95 2.85,39.95 L44.7,63.7 C45.3,64.05 45.95,64.05 46.5,63.9 C47.35,63.6 48.05,62.8 48.05,61.8 L48.05,55 L0.1,27.3 L0.1,35.2 L0.1,35.2 Z" id="Path" fill="#9B1F3A"></path>
                    <polygon id="Path" fill="#CE9A09" points="0.1 11 0.1 27.3 48.05 54.95 48.05 38.7"></polygon>
                </g>
                <polygon id="Path" fill="#CE9A09" points="106.55 170.45 111.05 167.7 111.05 183.95 106.55 186.7"></polygon>
                <polygon id="Path" fill="#9B1F3A" points="110.2 192.45 105.45 195.4 105.45 188.8 108.25 188.45 109.55 190.35"></polygon>
                <polygon id="Path" fill="#9B1F3A" points="59.65 132.1 64 129.4 72 135.1 69.95 137.85"></polygon>
                <polygon id="Path" fill="#9B1F3A" points="111.05 167.7 106.55 170.45 106.6 163.3 110.55 162.65"></polygon>
                <polygon id="Path" fill="#000000" points="386.5 91.35 391.45 93.95 391.75 85.8 387.4 85.8"></polygon>
                <polygon id="Path" fill="#9B1F3A" points="386.5 104.65 391.3 107.1 392.7 102.95 391.75 99.75 389.15 99.6 387.7 100.85"></polygon>
                <polygon id="Path" fill="#CE9A09" points="388.65 111.75 394.3 114.85 395.85 112.45 393.65 109.65 389.75 109.35 388.4 110.55"></polygon>
                <polygon id="Path" fill="#000000" points="431.45 55.3 432.35 53.95 437.15 56.55 436.6 57.95 431.1 59.8 431.1 56.6"></polygon>
                <polygon id="Path" fill="#2F2F56" points="515.35 119.25 519.65 121.45 514.6 125.75 513.3 123.95 514.25 121.3"></polygon>
                <polygon id="Path" fill="#2F2F56" points="500.75 162.6 505.75 165.1 506.85 162.6 503.6 161.25 500.5 161.1"></polygon>
                <polygon id="Path" fill="#E5E5E5" points="531.25 110.2 535.5 112.3 532 116.45 530.1 116.3 529.75 113.35"></polygon>
                <polygon id="Path" fill="#9B1F3A" points="544.3 104.65 548.45 106.75 547.15 108.05 543.75 108.55 542.9 105.8"></polygon>
                <g id="Group" transform="translate(152.500000, 92.000000)">
                    <path d="M24.3,14 C22.05,12.7 19.85,11.45 17.6,10.15 C11.9,6.85 6.2,3.55 0.45,0.25 L0.45,2.95 C3.75,4.85 7.1,6.8 10.5,8.75 C9.85,8.85 9.3,8.95 8.7,9 C7.15,9.05 5.6,9.1 4.05,9.15 C2.85,9.2 1.65,9.25 0.45,9.3 L0.45,14.1 C1.9,14 3.35,13.95 4.85,13.85 C6.6,13.75 8.3,13.65 10.05,13.55 C12.1,13.45 15.5,13.1 17.6,12.95 C17.8,12.95 18.75,13.45 19,13.65 C20.05,14.35 21.15,14.9 22.35,15.6 C22.25,15.75 22.2,15.95 22.1,15.95 C21.65,16.05 21.2,16.1 20.7,16.1 C19.25,16.15 17.8,16.15 16.35,16.2 C14.35,16.3 12.3,16.4 10.3,16.45 C8.45,16.55 6.55,16.6 4.7,16.7 C3.65,16.75 2.65,16.9 1.65,17 L12.25,23.1 C9.6,21.6 6.95,20.05 4.35,18.55 C4.55,18.55 4.8,18.5 5,18.5 C7.45,18.4 9.95,18.25 12.4,18.15 C14.3,18.05 16.25,17.95 18.15,17.85 C19.5,17.75 20.85,17.65 22.35,17.55 C22.35,21.45 22.35,25.2 22.35,28.95 L25,30.5 C25,25.1 25,19.75 25,14.3 C24.65,14.2 24.5,14.1 24.3,14 Z" id="Path" fill="#FFFFFF"></path>
                    <path d="M24.95,30.55 C27.5,32.05 30.05,33.5 32.6,35 L32.6,35 L24.95,30.55 L24.95,30.55 Z" id="Path" fill="#F3000F"></path>
                    <path d="M22.3,29 L22.3,29 L12.25,23.2 C15.55,25.15 18.9,27.05 22.3,29 Z" id="Path" fill="#001882"></path>
                    <path d="M18.1,17.9 C16.2,18 14.25,18.1 12.35,18.2 C9.9,18.3 7.4,18.45 4.95,18.55 C4.75,18.55 4.5,18.6 4.3,18.6 C6.95,20.1 9.6,21.65 12.2,23.15 L22.25,28.95 C22.25,25.2 22.25,21.45 22.25,17.55 C20.8,17.7 19.45,17.8 18.1,17.9 Z" id="Path" fill="#3C3B6E"></path>
                    <path d="M0.45,16.4 C0.85,16.6 1.2,16.85 1.6,17.05 L1.6,17.05 L0.45,16.4 L0.45,16.4 Z" id="Path" fill="#F3000F"></path>
                    <path d="M10.3,16.55 C12.3,16.45 14.35,16.35 16.35,16.3 C17.8,16.25 19.25,16.25 20.7,16.2 C21.2,16.2 21.65,16.1 22.1,16.05 C22.2,16.05 22.25,15.85 22.35,15.7 C21.15,15 20.1,14.45 19,13.75 C18.7,13.55 17.75,13.05 17.6,13.05 C15.55,13.15 12.15,13.5 10.05,13.65 C8.3,13.75 6.6,13.85 4.85,13.95 C3.4,14.05 1.95,14.1 0.45,14.2 L0.45,16.5 L1.6,17.15 C2.6,17.05 3.65,16.95 4.65,16.85 C6.55,16.7 8.45,16.6 10.3,16.55 Z" id="Path" fill="#CA2438"></path>
                    <path d="M4.05,9.15 C5.6,9.1 7.15,9.05 8.7,9 C9.3,8.95 9.85,8.85 10.5,8.75 C7.1,6.8 3.75,4.85 0.45,2.95 L0.45,9.3 C1.65,9.25 2.85,9.2 4.05,9.15 Z" id="Path" fill="#3C3B6E"></path>
                </g>
                <g id="Group" transform="translate(148.000000, 71.000000)">
                    <g id="SVGID_19_-link" transform="translate(3.500000, 5.000000)" fill="#2F2F56">
                        <path d="M4.2,39.75 L44.35,63.9 C45.85,64.75 47.7,63.7 47.7,61.95 L47.7,30.45 C47.7,28.2 47.4,26.95 45.45,25.8 L2.7,0.6 C1.55,-0.1 0.3,0.7 0.5,1.95 L1.5,35 C1.45,36.95 2.5,38.75 4.2,39.75 Z" id="SVGID_19_"></path>
                    </g>
                    <g id="Path">
                        <path d="M0.5,3 C2,4.8 3.1,6.1 5.15,8.6 C7.35,11.25 9.6,13.9 11.8,16.55 C13.6,18.75 15.45,20.95 17.25,23.1 C17.4,23.25 17.5,23.4 17.75,23.7 C17.5,23.6 17.35,23.5 17.2,23.45 C16.7,23.2 16.25,22.85 15.75,22.65 C13.7,21.75 11.85,20.1 10.15,17.8 C9.4,16.8 8.5,15.85 7.7,14.9 C5.7,12.5 3.65,10.05 1.65,7.65 C1,6.85 0.8,6.6 0.2,5.9 L0.2,7.4 C1.1,8.45 1.95,9.45 2.85,10.5 C5.25,13.35 7.6,16.2 9.95,19.05 C10,19.15 10.1,19.2 10.25,19.45 C6.85,17.5 3.5,15.55 0.2,13.65 L0.2,16.4 C8.15,20.95 16.05,25.55 24,30.15 C24.2,30.25 24.45,30.4 24.7,30.55 C24.7,25.15 23.85,20.3 23.85,15 C23.85,15 23.85,15 23.9,15 L21.15,13.4 C21.15,17.1 22,20.4 22,24.2 C15.8,16.7 9.15,10.15 3.35,3.15 L0.2,0.4 L0.2,2.65 C0.35,2.8 0.4,2.9 0.5,3 Z" fill="#E5E5E5"></path>
                        <path d="M32.35,34.2 C32.35,34.45 32.35,34.7 32.35,35 C40.2,39.55 46.25,44.45 54,48.95 L54,46.15 C51,44.4 49.75,42.25 46.7,40.5 C46.9,40.45 47,40.45 47.15,40.45 C48.7,40.4 48.55,40.8 50.1,40.75 C51.4,40.7 52.7,40.65 54.05,40.55 L53.2,36.2 C51.55,36.25 50.75,35.9 49.15,36 C47.4,36.1 47.35,35.75 45.6,35.85 C43.65,35.95 41.7,36.05 39.75,36.1 C39.4,36.1 39,36 38.65,35.8 C37.45,35.15 36.25,34.45 35.1,33.75 C34.95,33.2 35.15,33.2 35.4,33.2 C36.7,33.15 38,33.15 39.3,33.1 C41.35,33 43.35,32.9 45.4,32.85 C47.25,32.75 46.5,33.55 48.35,33.45 C49.8,33.4 51.25,33.3 52.75,33.25 C52.9,33.25 53.05,33.25 53.15,33.3 L50.3,31.65 C50.2,31.65 50.1,31.7 50,31.7 C49,31.75 48.85,31.75 47.9,31.8 C45.85,31.9 45.55,31.15 43.5,31.25 C41.65,31.35 39.8,31.45 37.95,31.55 C37,31.6 36.1,31.7 35.1,31.8 C35.1,27.95 34.25,24.7 34.25,20.95 L31.4,19.3 C31.6,19.5 31.7,19.75 31.7,20.15 C31.5,24.95 32.35,29.35 32.35,34.2 Z" fill="#E5E5E5"></path>
                        <path d="M50.6,66 C48.65,63.7 48.45,60.95 46.55,58.65 C44.6,56.35 42.7,54.05 40.75,51.7 C40.25,51.1 39.8,50.5 39.3,49.8 C39.45,49.85 39.6,49.9 39.7,50 C41.05,50.8 42.45,51.5 43.8,52.4 C44.3,52.75 44.8,53.35 45.3,53.95 C46.5,55.35 46.8,56.8 47.95,58.2 C50.25,61 51.7,64.15 54.05,66.95 L54.05,65.45 C53.6,64.9 53.1,64.35 52.65,63.75 C50.65,61.35 50.35,58.5 48.4,56.1 C47.9,55.5 47.4,54.8 46.85,54.1 C49.85,55.85 51.1,58 54.1,59.7 L54.1,56.95 C46.3,52.45 40.25,47.55 32.45,43 C32.45,43.3 32.45,43.55 32.45,43.8 C32.45,48.7 32.45,53.6 32.45,58.5 C32.45,58.7 32.45,58.95 32.5,59.15 L35.05,60.65 C35.05,56.9 35.05,53.15 35.05,49.3 C35.3,49.55 35.45,49.75 35.65,49.95 C38.55,53.45 41.5,56.95 44.4,60.45 C46.3,62.7 46.45,65.4 48.3,67.7 C49.3,68.95 50.35,70.2 51.35,71.45 L54.15,73.05 L54.15,70.1 C52.9,68.7 51.75,67.35 50.6,66 Z" fill="#E5E5E5"></path>
                        <path d="M24.1,38.15 C21.85,36.85 19.65,35.6 17.4,34.3 C11.7,31 6,27.7 0.25,24.4 L0.25,27.1 C3.55,29 6.9,30.95 10.3,32.9 C9.65,33 9.1,33.1 8.5,33.15 C6.95,33.2 5.4,33.25 3.85,33.3 C2.65,33.35 1.45,33.4 0.25,33.45 L0.25,38.25 C1.7,38.15 3.15,38.1 4.65,38 C6.4,37.9 8.1,37.8 9.85,37.7 C11.9,37.6 15.3,37.25 17.4,37.1 C17.6,37.1 18.55,37.6 18.8,37.8 C19.85,38.5 20.95,39.05 22.15,39.75 C22.05,39.9 22,40.1 21.9,40.1 C21.45,40.2 21,40.25 20.5,40.25 C19.05,40.3 17.6,40.3 16.15,40.35 C14.15,40.45 12.1,40.55 10.1,40.6 C8.25,40.7 6.35,40.75 4.5,40.85 C3.45,40.9 2.45,41.05 1.45,41.15 L12.05,47.25 C9.4,45.75 6.75,44.2 4.15,42.7 C4.35,42.7 4.6,42.65 4.8,42.65 C7.25,42.55 9.75,42.4 12.2,42.3 C14.1,42.2 16.05,42.1 17.95,42 C19.3,41.9 20.65,41.8 22.15,41.7 C22.15,45.6 22.15,49.35 22.15,53.1 L24.8,54.65 C24.8,49.25 24.8,43.9 24.8,38.45 C24.45,38.35 24.25,38.25 24.1,38.15 Z" fill="#FFFFFF"></path>
                        <path d="M24.75,54.7 C27.3,56.2 29.85,57.65 32.4,59.15 L32.4,59.15 L24.75,54.7 L24.75,54.7 Z" fill="#F3000F"></path>
                        <path d="M30.85,19 C28.7,17.8 26.6,16.55 24.45,15.35 C24.3,15.25 24.1,15.15 23.9,15.05 L31.2,19.3 C31.15,19.2 31,19.1 30.85,19 Z" fill="#F3000F"></path>
                        <path d="M32.35,43.8 C32.35,43.55 32.35,43.3 32.35,43 C40.15,47.5 46.2,52.45 54,56.95 L54,49 C46.25,44.5 40.2,39.6 32.35,35.05 C32.35,34.75 32.35,34.5 32.35,34.25 C32.35,29.4 31.5,25 31.5,20.2 C31.5,19.75 31.4,19.55 31.2,19.35 L23.9,15.1 C23.9,15.1 23.9,15.1 23.85,15.1 C23.85,20.45 24.7,25.3 24.7,30.65 C24.45,30.5 24.2,30.35 24,30.25 C16.05,25.65 8.15,21.1 0.2,16.5 L0.2,24.45 C5.9,27.75 11.6,31.05 17.35,34.35 C19.6,35.65 21.8,36.9 24.05,38.2 C24.25,38.3 24.4,38.4 24.7,38.55 C24.7,44 24.7,49.35 24.7,54.75 L32.35,59.2 C32.35,59 32.3,58.75 32.3,58.55 C32.35,53.6 32.35,48.7 32.35,43.8 Z" fill="#9B1F3A"></path>
                        <path d="M34.95,60.6 C40.95,64.05 45.2,67.95 51.2,71.4 L51.2,71.4 L34.95,60.6 L34.95,60.6 Z" fill="#001882"></path>
                        <path d="M44.25,60.45 C41.35,56.95 38.4,53.45 35.5,49.95 C35.35,49.75 35.15,49.55 34.9,49.3 C34.9,53.15 34.9,56.9 34.9,60.65 L51.15,71.45 C50.15,70.2 49.15,68.95 48.1,67.7 C46.3,65.4 46.15,62.7 44.25,60.45 Z" fill="#E5E5E5"></path>
                        <path d="M22.05,53.2 L22.05,53.2 L12,47.35 C15.35,49.3 18.7,51.25 22.05,53.2 Z" fill="#001882"></path>
                        <path d="M17.9,42.05 C16,42.15 14.05,42.25 12.15,42.35 C9.7,42.45 7.2,42.6 4.75,42.7 C4.55,42.7 4.3,42.75 4.1,42.75 C6.75,44.25 9.4,45.8 12,47.3 L22.05,53.1 C22.05,49.35 22.05,45.6 22.05,41.7 C20.6,41.85 19.25,42 17.9,42.05 Z" fill="#3C3B6E"></path>
                        <path d="M0.25,40.6 C0.65,40.8 1,41.05 1.4,41.25 L1.4,41.25 L0.25,40.6 L0.25,40.6 Z" fill="#F3000F"></path>
                        <path d="M10.1,40.7 C12.1,40.6 14.15,40.5 16.15,40.45 C17.6,40.4 19.05,40.4 20.5,40.35 C21,40.35 21.45,40.25 21.9,40.2 C22,40.2 22.05,40 22.15,39.85 C20.95,39.15 19.9,38.6 18.8,37.9 C18.5,37.7 17.55,37.2 17.4,37.2 C15.35,37.3 11.95,37.65 9.85,37.8 C8.1,37.9 6.4,38 4.65,38.1 C3.2,38.2 1.75,38.25 0.25,38.35 L0.25,40.65 L1.4,41.3 C2.4,41.2 3.45,41.1 4.45,41 C6.35,40.85 8.2,40.8 10.1,40.7 Z" fill="#CA2438"></path>
                        <path d="M3.85,33.3 C5.4,33.25 6.95,33.2 8.5,33.15 C9.1,33.1 9.65,33 10.3,32.9 C6.9,30.95 3.55,29 0.25,27.1 L0.25,33.5 C1.45,33.4 2.65,33.35 3.85,33.3 Z" fill="#3C3B6E"></path>
                        <path d="M10,19.05 C7.65,16.2 5.25,13.35 2.9,10.5 C2.05,9.45 1.15,8.4 0.25,7.4 L0.25,13.7 C3.55,15.6 6.9,17.55 10.3,19.5 C10.15,19.25 10.1,19.15 10,19.05 Z" fill="#3C3B6E"></path>
                        <path d="M47.95,58.15 C46.75,56.75 46.5,55.3 45.3,53.9 C44.85,53.35 44.3,52.7 43.8,52.35 C42.45,51.45 41.1,50.75 39.7,49.95 C39.6,49.9 39.45,49.85 39.3,49.75 C39.8,50.45 40.3,51.05 40.75,51.65 C42.65,53.95 44.6,56.3 46.55,58.6 C48.5,60.9 48.7,63.65 50.6,65.95 C51.75,67.3 52.9,68.7 54.05,70.05 L54.05,66.85 C51.7,64.1 50.25,60.95 47.95,58.15 Z" fill="#9B1F3A"></path>
                        <path d="M7.75,14.9 C8.55,15.85 9.4,16.8 10.2,17.8 C11.9,20.1 13.75,21.75 15.8,22.65 C16.25,22.85 16.75,23.2 17.25,23.45 C17.4,23.55 17.55,23.6 17.8,23.7 C17.55,23.4 17.45,23.25 17.3,23.1 C15.5,20.9 13.65,18.7 11.85,16.55 C9.65,13.9 7.4,11.25 5.2,8.6 C3.15,6.1 2.05,4.8 0.55,3 C0.45,2.9 0.4,2.8 0.3,2.7 L0.3,5.9 C0.9,6.6 1.1,6.85 1.75,7.65 C3.75,10.1 5.75,12.5 7.75,14.9 Z" fill="#9B1F3A"></path>
                        <path d="M21.2,13.4 C14.7,9.65 9,6.35 3.3,3.05 C3.35,3.1 3.4,3.15 2.85,3.2 L20.65,13.45 C21.2,13.45 21.2,13.4 21.2,13.4 Z" fill="#001882"></path>
                        <path d="M20.6,13.45 L2.8,3.2 C3.4,3.85 3.75,4.75 4.35,5.4 C10.1,11.65 16.4,17.45 22,24.25 C22.05,20.45 21.2,17.2 20.6,13.45 Z" fill="#2F2F56"></path>
                        <path d="M50.25,31.6 C44.25,28.15 40.05,24.3 34.1,20.85 C34.1,20.85 34.1,20.9 34.1,20.9 L50.2,31.6 C50.2,31.6 50.2,31.6 50.25,31.6 Z" fill="#001882"></path>
                        <path d="M37.8,31.5 C39.65,31.4 41.5,31.3 43.35,31.2 C45.4,31.1 45.7,31.85 47.75,31.75 C48.75,31.7 48.9,31.7 49.85,31.65 C49.95,31.65 50.05,31.65 50.15,31.6 L34.05,20.9 C34.05,24.65 34.9,27.9 34.9,31.75 C35.95,31.7 36.9,31.6 37.8,31.5 Z" fill="#2F2F56"></path>
                        <path d="M53.15,33.35 C53.15,33.35 53.15,33.35 53.15,33.35 C53.1,33.3 53.05,33.3 53,33.3 L53.15,33.35 L53.15,33.35 Z" fill="#F3000F"></path>
                        <path d="M48.2,33.4 C46.35,33.5 47.1,32.7 45.25,32.8 C43.2,32.9 41.2,33 39.15,33.05 C37.85,33.1 36.55,33.15 35.25,33.15 C35,33.15 34.8,33.15 34.95,33.7 C36.1,34.4 37.3,35.1 38.5,35.75 C38.85,35.95 39.3,36.1 39.6,36.05 C41.55,36 43.5,35.85 45.45,35.8 C47.2,35.7 47.25,36.05 49,35.95 C50.65,35.85 51.45,36.25 53.05,36.15 L53.05,33.3 L52.9,33.2 C52.75,33.15 52.6,33.15 52.5,33.15 C51.15,33.25 49.65,33.35 48.2,33.4 Z" fill="#9B1F3A"></path>
                        <path d="M46.8,54.05 C47.35,54.75 47.85,55.45 48.35,56.05 C50.35,58.45 50.6,61.3 52.6,63.7 C53.05,64.25 53.55,64.8 54,65.4 L54,59.65 C51.05,57.9 49.8,55.75 46.8,54.05 Z" fill="#2F2F56"></path>
                        <path d="M50.1,40.7 C48.55,40.75 48.7,40.35 47.15,40.4 C47.05,40.4 46.9,40.45 46.7,40.45 C49.75,42.2 51,44.35 54,46.1 L54,40.5 C52.7,40.6 51.4,40.65 50.1,40.7 Z" fill="#2F2F56"></path>
                    </g>
                </g>
                <polygon id="Path" fill="#E5E5E5" points="176.75 95.15 182.15 93.05 179.5 91.5 174.2 93.65"></polygon>
                <polygon id="Path" fill="#2F2F56" points="176.75 95.15 182.15 93.05 189.3 97.35 185.55 100.2"></polygon>
                <polygon id="Path" fill="#2F2F56" points="193.15 105 198.05 102.6 193 99.85 189.2 99.75 187.3 101.75"></polygon>
                <polygon id="Path" fill="#E5E5E5" points="166.5 89.25 171.9 86.9 169.25 85.3 163.85 87.65"></polygon>
                <polygon id="Path" fill="#9B1F3A" points="166.5 89.25 174.2 93.65 179.5 91.5 171.85 86.9"></polygon>
                <polygon id="Path" fill="#E5E5E5" points="193.15 105 194.15 106.65 199 104.3 198.05 102.65 198.05 102.6"></polygon>
                <polygon id="Path" fill="#2F2F56" points="163.85 87.65 147.9 79.15 152.55 76.55 169.25 85.3"></polygon>
                <polygon id="Path" fill="#9B1F3A" points="194.7 109.6 199.2 107.1 197.8 105.1 194.15 106.65 193.5 108.85"></polygon>
                <polygon id="Path" fill="#E5E5E5" points="194.7 114.35 199.2 111.65 197.65 109.6 195.65 110.15 193.55 110.85"></polygon>
                <polygon id="Path" fill="#2F2F56" points="194.7 118.2 199.2 115.5 199.2 112.9 199.2 111.65 194.7 114.35"></polygon>
                <polygon id="Path" fill="#E5E5E5" points="194.7 118.2 199.2 115.5 199.2 118.3 194.7 121"></polygon>
                <polygon id="Path" fill="#9B1F3A" points="194.7 121.05 199.2 118.3 199.2 126.25 194.7 129"></polygon>
                <polygon id="Path" fill="#E5E5E5" points="194.7 128.95 199.2 126.25 199.2 129 194.7 131.75"></polygon>
                <polyline id="Path" fill="#2F2F56" points="194.7 131.75 199.2 129 199.2 132.95 194.7 135.7"></polyline>
                <polygon id="Path" fill="#E5E5E5" points="194.7 135.7 199.2 132.95 199.2 134.5 194.7 137.2"></polygon>
                <polygon id="Path" fill="#9B1F3A" points="199.2 137.7 194.7 140.45 194.7 137.25 199.2 134.5"></polygon>
                <polygon id="Path" fill="#E5E5E5" points="194.7 140.4 193.05 142.8 193.55 142.6 198.2 139.8 198.9 138.15 199.2 137.7"></polygon>
                <g id="Group" transform="translate(391.000000, 56.000000)">
                    <path d="M48,3.55 C48,0.95 45.2,-0.65 42.95,0.65 L5.2,22.05 C2.15,23.85 0.25,27.15 0.25,30.7 L0.25,37.95 L47.95,10.5 L47.95,3.55 L48,3.55 Z" id="Path" fill="#000000"></path>
                    <path d="M0.25,54.1 C0.25,58.15 4.65,60.65 8.15,58.6 L42.25,39.1 C45.8,37.05 48,33.25 48,29.1 L48,23.5 L0.3,51.25 L0.3,54.1 L0.25,54.1 Z" id="Path" fill="#FFCE00"></path>
                    <polygon id="Path" fill="#CA2438" points="0.25 37.95 0.25 51.25 48 23.5 48 10.55"></polygon>
                </g>
                <g id="Group" transform="translate(502.500000, 106.000000)">
                    <path d="M4.95,22.2 C1.9,24 0,27.3 0,30.85 L0,54.25 C0,58.3 4.4,60.8 7.9,58.75 L17.1,53.5 L17.1,15.3 L4.95,22.2 Z" id="Path" fill="#3C3B6E"></path>
                    <path d="M42.7,0.8 L33,6.3 L33,44.4 L42,39.25 C45.55,37.2 47.75,33.4 47.75,29.25 L47.75,3.65 C47.75,1.1 44.95,-0.5 42.7,0.8 Z" id="Path" fill="#CA2438"></path>
                    <polygon id="Path" fill="#FFFFFF" points="17.1 15.35 17.1 53.5 33 44.45 33 6.3"></polygon>
                </g>
                <g id="Group" transform="translate(58.500000, 131.500000)">
                    <path d="M48.05,30.5 C48.05,28.25 46.85,26.15 44.9,25 L2.75,0.7 C1.6,0 0.1,0.85 0.1,2.2 L0.1,11.25 L48.05,38.95 L48.05,30.5 Z" id="Path" fill="#CA2438"></path>
                    <path d="M0.1,35.45 C0.1,37.4 1.15,39.2 2.85,40.2 L44.7,63.95 C46.2,64.8 48.05,63.75 48.05,62 L48.05,55.2 L0.1,27.5 L0.1,35.45 L0.1,35.45 Z" id="Path" fill="#CA2438"></path>
                    <polygon id="Path" fill="#FFC400" points="0.1 11.25 0.1 27.55 48.05 55.2 48.05 38.95"></polygon>
                </g>
                <g id="Group" transform="translate(146.500000, 95.000000)">
                    <path d="M24.1,14.15 C21.85,12.85 19.65,11.6 17.4,10.3 C11.7,7 6,3.7 0.25,0.4 L0.25,3.1 C3.55,5 6.9,6.95 10.3,8.9 C9.65,9 9.1,9.1 8.5,9.15 C6.95,9.2 5.4,9.25 3.85,9.3 C2.65,9.35 1.45,9.4 0.25,9.45 L0.25,14.25 C1.7,14.15 3.15,14.1 4.65,14 C6.4,13.9 8.1,13.8 9.85,13.7 C11.9,13.6 15.3,13.25 17.4,13.1 C17.6,13.1 18.55,13.6 18.8,13.8 C19.85,14.5 20.95,15.05 22.15,15.75 C22.05,15.9 22,16.1 21.9,16.1 C21.45,16.2 21,16.25 20.5,16.25 C19.05,16.3 17.6,16.3 16.15,16.35 C14.15,16.45 12.1,16.55 10.1,16.6 C8.25,16.7 6.35,16.75 4.5,16.85 C3.45,16.9 2.45,17.05 1.45,17.15 L12.05,23.25 C9.4,21.75 6.75,20.2 4.15,18.7 C4.35,18.7 4.6,18.65 4.8,18.65 C7.25,18.55 9.75,18.4 12.2,18.3 C14.1,18.2 16.05,18.1 17.95,18 C19.3,17.9 20.65,17.8 22.15,17.7 C22.15,21.6 22.15,25.35 22.15,29.1 L24.8,30.65 C24.8,25.25 24.8,19.9 24.8,14.45 C24.45,14.35 24.25,14.25 24.1,14.15 Z" id="Path" fill="#FFFFFF"></path>
                    <path d="M24.7,30.7 C27.25,32.2 29.8,33.65 32.35,35.15 L32.35,35.15 L24.7,30.7 L24.7,30.7 Z" id="Path" fill="#F3000F"></path>
                    <path d="M22.05,29.15 L22.05,29.15 L12,23.35 C15.35,25.25 18.7,27.2 22.05,29.15 Z" id="Path" fill="#001882"></path>
                    <path d="M17.9,18.05 C16,18.15 14.05,18.25 12.15,18.35 C9.7,18.45 7.2,18.6 4.75,18.7 C4.55,18.7 4.3,18.75 4.1,18.75 C6.75,20.25 9.4,21.8 12,23.3 L22.05,29.1 C22.05,25.35 22.05,21.6 22.05,17.7 C20.6,17.85 19.25,17.95 17.9,18.05 Z" id="Path" fill="#3C3B6E"></path>
                    <path d="M0.25,16.55 C0.65,16.75 1,17 1.4,17.2 L1.4,17.2 L0.25,16.55 L0.25,16.55 Z" id="Path" fill="#F3000F"></path>
                    <path d="M10.1,16.7 C12.1,16.6 14.15,16.5 16.15,16.45 C17.6,16.4 19.05,16.4 20.5,16.35 C21,16.35 21.45,16.25 21.9,16.2 C22,16.2 22.05,16 22.15,15.85 C20.95,15.15 19.9,14.6 18.8,13.9 C18.5,13.7 17.55,13.2 17.4,13.2 C15.35,13.3 11.95,13.65 9.85,13.8 C8.1,13.9 6.4,14 4.65,14.1 C3.2,14.2 1.75,14.25 0.25,14.35 L0.25,16.65 L1.4,17.3 C2.4,17.2 3.45,17.1 4.45,17 C6.35,16.85 8.2,16.75 10.1,16.7 Z" id="Path" fill="#CA2438"></path>
                    <path d="M3.85,9.3 C5.4,9.25 6.95,9.2 8.5,9.15 C9.1,9.1 9.65,9 10.3,8.9 C6.9,6.95 3.55,5 0.25,3.1 L0.25,9.45 C1.45,9.4 2.65,9.35 3.85,9.3 Z" id="Path" fill="#3C3B6E"></path>
                </g>
                <g id="Group" transform="translate(142.000000, 74.500000)">
                    <path d="M0.3,2.65 C1.85,4.5 3.4,6.4 4.95,8.25 C7.15,10.9 9.4,13.55 11.6,16.2 C13.4,18.4 15.25,20.6 17.05,22.75 C17.2,22.9 17.3,23.05 17.55,23.35 C17.3,23.25 17.15,23.15 17,23.1 C16.5,22.85 16.05,22.5 15.55,22.3 C13.5,21.4 11.65,19.75 9.95,17.45 C9.2,16.45 8.3,15.5 7.5,14.55 C5.5,12.15 3.45,9.7 1.45,7.3 C0.95,6.7 0.5,6.1 5.68434189e-14,5.55 L5.68434189e-14,7.05 C0.9,8.1 1.75,9.1 2.65,10.15 C5.05,13 7.4,15.85 9.75,18.7 C9.8,18.8 9.9,18.85 10.05,19.1 C6.65,17.15 3.3,15.2 5.68434189e-14,13.3 L5.68434189e-14,16.05 C7.95,20.6 15.85,25.2 23.8,29.8 C24,29.9 24.25,30.05 24.5,30.2 C24.5,24.8 24.5,19.55 24.5,14.2 C24.5,14.2 24.5,14.2 24.55,14.2 L21.8,12.6 C21.8,16.3 21.8,20 21.8,23.85 C15.9,16.7 10,9.6 4,2.35 L5.68434189e-14,0.05 L5.68434189e-14,2.3 C0.15,2.45 0.2,2.55 0.3,2.65 Z" id="Path" fill="#FFFFFF"></path>
                    <path d="M32.15,33.85 C32.15,34.1 32.15,34.35 32.15,34.65 C40,39.2 47.75,43.65 55.55,48.15 L55.55,45.35 C52.55,43.6 49.55,41.9 46.55,40.15 C46.75,40.1 46.85,40.1 47,40.1 C48.55,40.05 50.1,40 51.65,39.95 C52.95,39.9 54.25,39.85 55.6,39.75 L55.6,35 C53.95,35.05 52.3,35.15 50.65,35.25 C48.9,35.35 47.15,35.45 45.35,35.5 C43.4,35.6 41.45,35.7 39.5,35.75 C39.15,35.75 38.75,35.65 38.4,35.45 C37.2,34.8 36,34.1 34.85,33.4 C34.7,32.85 34.9,32.85 35.15,32.85 C36.45,32.8 37.75,32.8 39.05,32.75 C41.1,32.65 43.1,32.55 45.15,32.5 C47,32.4 48.8,32.35 50.65,32.25 C52.1,32.2 53.55,32.1 55.05,32.05 C55.2,32.05 55.35,32.05 55.45,32.1 L52.6,30.45 C52.5,30.45 52.4,30.5 52.3,30.5 C51.3,30.55 50.3,30.55 49.3,30.6 C47.25,30.7 45.2,30.8 43.2,30.9 C41.35,31 39.5,31.1 37.65,31.2 C36.7,31.25 35.8,31.35 34.8,31.45 C34.8,27.6 34.8,23.9 34.8,20.15 L31.95,18.5 C32.15,18.7 32.25,18.95 32.25,19.35 C32.15,24.15 32.15,29 32.15,33.85 Z" id="Path" fill="#FFFFFF"></path>
                    <path d="M52.1,65.2 C50.15,62.9 48.25,60.55 46.3,58.25 C44.35,55.95 42.45,53.65 40.5,51.3 C40,50.7 39.55,50.1 39.05,49.4 C39.2,49.45 39.35,49.5 39.45,49.6 C40.8,50.4 42.2,51.1 43.55,52 C44.05,52.35 44.55,52.95 45.05,53.55 C46.25,54.95 47.4,56.4 48.55,57.8 C50.85,60.6 53.2,63.35 55.5,66.1 L55.5,64.6 C55.05,64.05 54.55,63.5 54.1,62.9 C52.1,60.5 50.1,58.1 48.1,55.7 C47.6,55.1 47.1,54.4 46.55,53.7 C49.55,55.45 52.5,57.15 55.5,58.85 L55.5,56.1 C47.7,51.6 39.95,47.1 32.1,42.6 C32.1,42.9 32.1,43.15 32.1,43.4 C32.1,48.3 32.1,53.2 32.1,58.1 C32.1,58.3 32.1,58.55 32.15,58.75 L34.7,60.25 C34.7,56.5 34.7,52.75 34.7,48.9 C34.95,49.15 35.1,49.35 35.3,49.55 C38.2,53.05 41.15,56.55 44.05,60.05 C45.95,62.3 47.8,64.6 49.7,66.85 C50.7,68.1 51.75,69.35 52.75,70.6 L55.55,72.2 L55.55,69.25 C54.4,67.95 53.25,66.55 52.1,65.2 Z" id="Path" fill="#FFFFFF"></path>
                    <path d="M23.85,37.8 C21.6,36.5 19.4,35.25 17.15,33.95 C11.45,30.65 5.75,27.35 0,24.05 L0,26.75 C3.3,28.65 6.65,30.6 10.05,32.55 C9.4,32.65 8.85,32.75 8.25,32.8 C6.7,32.85 5.15,32.9 3.6,32.95 C2.4,33 1.2,33.05 0,33.1 L0,37.9 C1.45,37.8 2.9,37.75 4.4,37.65 C6.15,37.55 7.85,37.45 9.6,37.35 C11.65,37.25 15.05,36.9 17.15,36.75 C17.35,36.75 18.3,37.25 18.55,37.45 C19.6,38.15 20.7,38.7 21.9,39.4 C21.8,39.55 21.75,39.75 21.65,39.75 C21.2,39.85 20.75,39.9 20.25,39.9 C18.8,39.95 17.35,39.95 15.9,40 C13.9,40.1 11.85,40.2 9.85,40.25 C8,40.35 6.1,40.4 4.25,40.5 C3.2,40.55 2.2,40.7 1.2,40.8 L11.8,46.9 C9.15,45.4 6.5,43.85 3.9,42.35 C4.1,42.35 4.35,42.3 4.55,42.3 C7,42.2 9.5,42.05 11.95,41.95 C13.85,41.85 15.8,41.75 17.7,41.65 C19.05,41.55 20.4,41.45 21.9,41.35 C21.9,45.25 21.9,49 21.9,52.75 L24.55,54.3 C24.55,48.9 24.55,43.55 24.55,38.1 C24.25,38 24.05,37.9 23.85,37.8 Z" id="Path" fill="#FFFFFF"></path>
                    <path d="M24.5,54.35 C27.05,55.85 29.6,57.3 32.15,58.8 L32.15,58.8 L24.5,54.35 L24.5,54.35 Z" id="Path" fill="#F3000F"></path>
                    <path d="M31.5,18.2 C29.35,17 27.25,15.75 25.1,14.55 C24.95,14.45 24.75,14.35 24.55,14.25 L31.85,18.5 C31.8,18.4 31.65,18.3 31.5,18.2 Z" id="Path" fill="#F3000F"></path>
                    <path d="M32.15,43.45 C32.15,43.2 32.15,42.95 32.15,42.65 C39.95,47.15 47.75,51.65 55.55,56.15 L55.55,48.2 C47.8,43.7 40,39.25 32.15,34.7 C32.15,34.4 32.15,34.15 32.15,33.9 C32.15,29.05 32.15,24.2 32.15,19.4 C32.15,18.95 32.05,18.75 31.85,18.55 L24.55,14.3 C24.55,14.3 24.55,14.3 24.5,14.3 C24.5,19.65 24.5,24.9 24.5,30.3 C24.25,30.15 24,30 23.8,29.9 C15.85,25.3 7.95,20.75 -5.68434189e-14,16.15 L-5.68434189e-14,24.1 C5.7,27.4 11.4,30.7 17.15,34 C19.4,35.3 21.6,36.55 23.85,37.85 C24.05,37.95 24.2,38.05 24.5,38.2 C24.5,43.65 24.5,49 24.5,54.4 L32.15,58.85 C32.15,58.65 32.1,58.4 32.1,58.2 C32.15,53.2 32.15,48.35 32.15,43.45 Z" id="Path" fill="#CA2438"></path>
                    <path d="M34.75,60.25 C40.75,63.7 46.75,67.15 52.75,70.65 L52.75,70.65 L34.75,60.25 L34.75,60.25 Z" id="Path" fill="#001882"></path>
                    <path d="M44.05,60.1 C41.15,56.6 38.2,53.1 35.3,49.6 C35.15,49.4 34.95,49.2 34.7,48.95 C34.7,52.8 34.7,56.55 34.7,60.3 L52.7,70.7 C51.7,69.45 50.7,68.2 49.65,66.95 C47.8,64.6 45.95,62.35 44.05,60.1 Z" id="Path" fill="#3C3B6E"></path>
                    <path d="M21.85,52.8 L21.85,52.8 L11.8,47 C15.15,48.95 18.5,50.9 21.85,52.8 Z" id="Path" fill="#001882"></path>
                    <path d="M17.65,41.7 C15.75,41.8 13.8,41.9 11.9,42 C9.45,42.1 6.95,42.25 4.5,42.35 C4.3,42.35 4.05,42.4 3.85,42.4 C6.5,43.9 9.15,45.45 11.75,46.95 L21.8,52.75 C21.8,49 21.8,45.25 21.8,41.35 C20.4,41.5 19.05,41.65 17.65,41.7 Z" id="Path" fill="#3C3B6E"></path>
                    <path d="M0.05,40.25 C0.45,40.45 0.8,40.7 1.2,40.9 L1.2,40.9 L0.05,40.25 L0.05,40.25 Z" id="Path" fill="#F3000F"></path>
                    <path d="M9.85,40.35 C11.85,40.25 13.9,40.15 15.9,40.1 C17.35,40.05 18.8,40.05 20.25,40 C20.75,40 21.2,39.9 21.65,39.85 C21.75,39.85 21.8,39.65 21.9,39.5 C20.7,38.8 19.65,38.25 18.55,37.55 C18.25,37.35 17.3,36.85 17.15,36.85 C15.1,36.95 11.7,37.3 9.6,37.45 C7.85,37.55 6.15,37.65 4.4,37.75 C2.95,37.85 1.5,37.9 0,38 L0,40.3 L1.15,40.95 C2.15,40.85 3.2,40.75 4.2,40.65 C6.15,40.5 8,40.45 9.85,40.35 Z" id="Path" fill="#CA2438"></path>
                    <path d="M3.65,32.95 C5.2,32.9 6.75,32.85 8.3,32.8 C8.9,32.75 9.45,32.65 10.1,32.55 C6.7,30.6 3.35,28.65 0.05,26.75 L0.05,33.1 C1.25,33.05 2.45,33 3.65,32.95 Z" id="Path" fill="#3C3B6E"></path>
                    <path d="M9.8,18.7 C7.45,15.85 5.05,13 2.7,10.15 C1.85,9.1 0.95,8.05 0.05,7.05 L0.05,13.35 C3.35,15.25 6.7,17.2 10.1,19.15 C9.95,18.9 9.85,18.8 9.8,18.7 Z" id="Path" fill="#3C3B6E"></path>
                    <path d="M48.6,57.8 C47.4,56.4 46.25,54.95 45.1,53.55 C44.65,53 44.1,52.35 43.6,52 C42.25,51.1 40.9,50.4 39.5,49.6 C39.4,49.55 39.25,49.5 39.1,49.4 C39.6,50.1 40.1,50.7 40.55,51.3 C42.45,53.6 44.4,55.95 46.35,58.25 C48.3,60.55 50.2,62.9 52.15,65.2 C53.3,66.55 54.45,67.95 55.6,69.3 L55.6,66.1 C53.2,63.35 50.9,60.55 48.6,57.8 Z" id="Path" fill="#CA2438"></path>
                    <path d="M7.55,14.55 C8.35,15.5 9.2,16.45 10,17.45 C11.7,19.75 13.55,21.4 15.6,22.3 C16.05,22.5 16.55,22.85 17.05,23.1 C17.2,23.2 17.35,23.25 17.6,23.35 C17.35,23.05 17.25,22.9 17.1,22.75 C15.3,20.55 13.45,18.35 11.65,16.2 C9.45,13.55 7.2,10.9 5,8.25 C3.45,6.4 1.9,4.5 0.35,2.65 C0.25,2.55 0.2,2.45 0.1,2.35 L0.1,5.55 C0.6,6.15 1.05,6.75 1.55,7.3 C3.5,9.75 5.55,12.15 7.55,14.55 Z" id="Path" fill="#CA2438"></path>
                    <path d="M21.85,12.6 C15.9,9.15 9.95,5.75 3.95,2.25 C4,2.3 4.05,2.35 4.1,2.4 L21.9,12.65 C21.85,12.65 21.85,12.6 21.85,12.6 Z" id="Path" fill="#001882"></path>
                    <path d="M21.85,12.7 L4.05,2.45 C10.05,9.7 15.9,16.8 21.85,23.95 C21.85,20.1 21.85,16.4 21.85,12.7 Z" id="Path" fill="#3C3B6E"></path>
                    <path d="M52.6,30.4 C46.6,26.95 40.65,23.5 34.7,20.1 C34.7,20.1 34.7,20.15 34.7,20.15 L52.5,30.4 C52.55,30.4 52.6,30.4 52.6,30.4 Z" id="Path" fill="#001882"></path>
                    <path d="M37.6,31.15 C39.45,31.05 41.3,30.95 43.15,30.85 C45.2,30.75 47.25,30.65 49.25,30.55 C50.25,30.5 51.25,30.5 52.25,30.45 C52.35,30.45 52.45,30.45 52.55,30.4 L34.75,20.15 C34.75,23.9 34.75,27.6 34.75,31.45 C35.75,31.35 36.65,31.25 37.6,31.15 Z" id="Path" fill="#3C3B6E"></path>
                    <path d="M55.55,32.1 C55.55,32.1 55.55,32.1 55.55,32.1 C55.5,32.05 55.45,32.05 55.4,32.05 L55.55,32.1 L55.55,32.1 Z" id="Path" fill="#F3000F"></path>
                    <path d="M50.6,32.2 C48.75,32.3 46.95,32.35 45.1,32.45 C43.05,32.55 41.05,32.65 39,32.7 C37.7,32.75 36.4,32.8 35.1,32.8 C34.85,32.8 34.65,32.8 34.8,33.35 C35.95,34.05 37.15,34.75 38.35,35.4 C38.7,35.6 39.15,35.75 39.45,35.7 C41.4,35.65 43.35,35.5 45.3,35.45 C47.05,35.35 48.8,35.25 50.6,35.2 C52.25,35.1 53.9,35.05 55.55,34.95 L55.55,32.1 L55.4,32 C55.25,31.95 55.1,31.95 55,31.95 C53.5,32.05 52.05,32.15 50.6,32.2 Z" id="Path" fill="#CA2438"></path>
                    <path d="M46.55,53.7 C47.1,54.4 47.6,55.1 48.1,55.7 C50.1,58.1 52.1,60.5 54.1,62.9 C54.55,63.45 55.05,64 55.5,64.6 L55.5,58.85 C52.55,57.15 49.55,55.4 46.55,53.7 Z" id="Path" fill="#3C3B6E"></path>
                    <path d="M51.6,39.9 C50.05,39.95 48.5,40 46.95,40.05 C46.85,40.05 46.7,40.1 46.5,40.1 C49.55,41.85 52.55,43.6 55.5,45.3 L55.5,39.7 C54.2,39.8 52.9,39.85 51.6,39.9 Z" id="Path" fill="#3C3B6E"></path>
                </g>
                <g id="Group" opacity="0.3" transform="translate(58.500000, 131.500000)" fill="#FFFFFF">
                    <path d="M2.75,0.65 C1.6,-0.05 0.1,0.8 0.1,2.15 L0.1,35.45 C0.1,37.4 1.15,39.2 2.85,40.2 L31.4,56.35 L13.6,6.9 L2.75,0.65 Z" id="Path"></path>
                </g>
                <g id="Group" opacity="0.3" transform="translate(167.000000, 89.500000)" fill="#FFFFFF">
                    <path d="M24.55,14.15 L0,0 L15.35,48 L24.4,53.1 C25.9,53.95 27.75,52.9 27.75,51.15 L27.75,19.65 C27.7,17.4 26.5,15.3 24.55,14.15 Z" id="Path"></path>
                </g>
                <g id="Group" opacity="0.3" transform="translate(411.000000, 56.000000)" fill="#FFFFFF">
                    <path d="M23,0.65 L15.2,5.05 L0.3,51.65 L22.3,39.05 C25.85,37 28.05,33.2 28.05,29.05 L28.05,23.5 L28.05,10.55 L28.05,3.55 C28.05,0.95 25.2,-0.65 23,0.65 Z" id="Path"></path>
                </g>
                <g id="Group" opacity="0.39" transform="translate(523.500000, 111.000000)" fill="#FFFFFF">
                    <path d="M0,46.3 L21.05,34.25 C24.6,32.2 26.8,28.4 26.8,24.25 L26.8,0.1 L0,46.3 Z" id="Path" opacity="0.61"></path>
                </g>
            </g>
        </g>
    </g>
</svg>